<svg width="50" height="50" viewBox="0 0 50 50" fill="none" xmlns="http://www.w3.org/2000/svg">
<g clip-path="url(#clip0_555_3595)">
<path d="M10.84 13.3283C10.84 13.0988 10.84 12.8944 10.84 12.6899C10.8498 11.9709 11.1363 11.6746 11.8484 11.6718C13.3574 11.6718 14.8679 11.6426 16.3755 11.6788C17.7079 11.7094 18.5772 11.0682 19.1252 9.9222C19.3157 9.52164 19.5118 9.17116 20.0125 9.17951C20.484 9.18924 20.6787 9.51886 20.8595 9.90412C21.4158 11.0752 22.299 11.7414 23.6495 11.6732C24.0487 11.6538 24.4478 11.6649 24.847 11.6732C25.5229 11.6844 25.8206 11.9834 25.8289 12.6677C25.8181 12.9235 25.8587 13.1789 25.9485 13.4187C26.0667 13.3144 26.2601 13.2268 26.2893 13.1002C26.9249 10.2963 26.8595 7.59119 25.0959 5.14195C24.0654 3.7093 22.6064 2.64105 20.9295 2.0913C19.2525 1.54154 17.4442 1.53871 15.7656 2.08321C14.0869 2.62772 12.6245 3.6914 11.5895 5.12081C10.5545 6.55023 10.0003 8.27147 10.0069 10.0362C10.0069 10.2449 10.0181 10.4535 10.0195 10.6607C10.0195 11.288 9.7413 11.6343 9.21279 11.6538C8.68427 11.6732 8.39081 11.3116 8.35604 10.6885C8.27253 9.35208 8.45308 8.01226 8.88734 6.74557C10.3658 2.46184 14.6676 -0.357364 19.1182 0.0390203C23.7441 0.456266 27.4701 3.87908 28.2044 8.41038C28.4687 10.0446 28.2948 11.6621 27.9666 13.2657C27.9082 13.5522 27.9291 13.7261 28.1864 13.9222C28.8818 14.4507 29.1878 15.1837 29.1599 16.0571C29.1348 16.9761 28.7954 17.8586 28.1984 18.5577C27.6013 19.2567 26.7827 19.73 25.879 19.8986C25.5605 19.9625 25.4075 20.1114 25.2378 20.3923C24.7316 21.2268 24.1446 22.021 23.6064 22.8415C23.4665 23.0241 23.3777 23.2406 23.3491 23.4688C23.3241 24.7205 23.3491 25.9723 23.3268 27.2143C23.3201 27.5401 23.2438 27.8606 23.1029 28.1545C22.153 30.0641 19.8915 31.1183 17.5549 30.7887C15.7802 30.5383 14.3727 29.7456 13.5494 28.0988C13.4225 27.8357 13.3546 27.5481 13.3505 27.256C13.3296 26.0043 13.3505 24.7525 13.3282 23.5105C13.3026 23.2656 13.2123 23.0318 13.0667 22.8332C12.5243 21.9987 11.9263 21.192 11.4172 20.3297C11.3573 20.2111 11.2689 20.1093 11.1599 20.0333C11.0509 19.9573 10.9247 19.9096 10.7928 19.8944C9.89658 19.733 9.08278 19.2694 8.48702 18.5807C7.89125 17.8921 7.54951 17.02 7.51876 16.11C7.44226 14.5063 8.58551 13.3158 10.1933 13.3283H10.84ZM20.0306 11.7191C18.6523 12.989 17.9652 13.3255 16.7149 13.3339C15.5021 13.3422 14.2879 13.3339 13.0751 13.3339H12.5118C12.5118 14.8513 12.4812 16.2894 12.5188 17.7247C12.5939 20.6329 14.8025 22.9667 17.7594 23.3075C20.573 23.6315 23.3964 21.7775 23.9249 18.9556C24.2642 17.1475 24.1599 15.2463 24.2573 13.3144C22.5076 13.4577 21.0918 13.0599 20.0306 11.7191ZM21.6676 24.2365C19.4172 25.2741 17.217 25.2351 15.0042 24.2504C15.0042 25.0849 15.0528 25.8527 14.9903 26.6148C14.9492 26.97 15.0144 27.3293 15.1775 27.6474C15.3407 27.9655 15.5945 28.2281 15.9068 28.402C16.4564 28.7569 17.071 28.9989 17.7149 29.1141C19.2003 29.3241 20.548 28.9973 21.4701 27.6649C21.5872 27.4966 21.6555 27.2993 21.6676 27.0947C21.6787 26.1656 21.6676 25.249 21.6676 24.2296V24.2365ZM10.8386 18.1169C10.8386 17.2185 10.8456 16.3255 10.8289 15.4326C10.8189 15.3686 10.7958 15.3073 10.7611 15.2525C10.7264 15.1977 10.6809 15.1506 10.6273 15.1141C10.1488 14.8026 9.38803 15.0919 9.21696 15.6343C8.91515 16.5703 9.79831 17.9403 10.8386 18.1169ZM25.8317 18.1169C26.8359 17.9653 27.7204 16.6343 27.4673 15.6969C27.3185 15.1406 26.5883 14.8137 26.0932 15.096C26.03 15.1318 25.9752 15.1805 25.9323 15.239C25.8894 15.2975 25.8594 15.3645 25.8442 15.4354C25.8234 16.3241 25.8317 17.2226 25.8317 18.1141V18.1169Z" fill="#007BFF"/>
<path d="M46.6498 6.67605C46.6498 7.0168 46.6651 7.27826 46.6498 7.53696C46.6465 7.7481 46.5601 7.94945 46.4093 8.09733C46.2586 8.24521 46.0556 8.32771 45.8445 8.32695C45.7353 8.33388 45.6258 8.31812 45.523 8.28069C45.4202 8.24325 45.3263 8.18494 45.2471 8.10943C45.168 8.03392 45.1053 7.94285 45.063 7.84193C45.0208 7.74101 44.9999 7.63244 45.0016 7.52305C44.9821 6.39649 44.9821 5.26899 45.0016 4.14057C44.9975 4.03146 45.0166 3.92273 45.0576 3.82152C45.0986 3.72031 45.1605 3.62892 45.2393 3.55337C45.3182 3.47783 45.4121 3.41983 45.515 3.38321C45.6178 3.34658 45.7273 3.33213 45.8361 3.34085C46.3104 3.34085 46.6205 3.65656 46.6484 4.17534C46.6637 4.43264 46.6484 4.69133 46.6484 5.00983C46.9516 5.00983 47.2214 5.00983 47.4926 5.00983C48.1512 5.0124 48.7821 5.27527 49.2477 5.74111C49.7133 6.20696 49.9758 6.838 49.978 7.49662C49.9933 9.5606 50.0127 11.626 49.978 13.6899C49.8917 18.0251 46.4203 21.8499 42.1171 22.3979C41.978 22.416 41.8486 22.4438 41.6595 22.4758V23.046C41.6595 26.6714 41.6595 30.2968 41.6595 33.9222C41.6595 36.5536 39.8876 38.3186 37.2464 38.3214C33.8639 38.3214 30.4796 38.3214 27.0934 38.3214C26.7221 38.3214 26.5218 38.3881 26.366 38.7762C26.0859 39.4844 25.5649 40.0711 24.8948 40.4331C24.2248 40.7951 23.4485 40.9092 22.7026 40.7553C21.941 40.6108 21.2541 40.2041 20.761 39.606C20.2678 39.0079 19.9997 38.2561 20.003 37.4809C20.0063 36.7057 20.2808 35.9562 20.779 35.3623C21.2772 34.7684 21.9676 34.3677 22.7304 34.2296C23.4785 34.0876 24.2526 34.2101 24.9204 34.5759C25.5882 34.9418 26.108 35.5283 26.3911 36.2351C26.494 36.4813 26.5496 36.6774 26.9112 36.6746C29.5134 36.6538 32.1157 36.6635 34.7179 36.6621C34.7819 36.6563 34.8456 36.6465 34.9084 36.6329C34.9084 35.7372 34.6553 34.8986 34.3354 34.0835C33.676 32.4201 32.5406 30.988 31.0714 29.9666C29.6022 28.9451 27.8643 28.3796 26.0753 28.3408C25.6358 28.3325 25.2339 28.2894 25.0475 27.8137C24.8139 27.2212 25.2144 26.6705 25.9015 26.6733C27.806 26.6564 29.6777 27.1693 31.3076 28.1545C34.3549 30.0098 36.124 32.7164 36.5774 36.2671C36.5927 36.3854 36.6247 36.5008 36.6484 36.6107C38.3938 36.8568 39.6303 36.1225 39.9432 34.6635C39.9784 34.4938 39.9957 34.3208 39.9947 34.1475C39.9947 30.3654 39.9947 26.5838 39.9947 22.8026C39.9947 22.7011 39.978 22.6009 39.971 22.5078C39.341 22.3687 38.7193 22.263 38.1337 22.0905C36.2693 21.5232 34.6356 20.3737 33.472 18.8104C32.3084 17.2471 31.6761 15.3522 31.6678 13.4034C31.6595 11.5133 31.6678 9.6218 31.6678 7.73028C31.6678 6.05017 32.7068 5.02375 34.4022 5.01958H35.0002C35.0002 4.73029 34.9891 4.46325 35.0002 4.18508C35.0253 3.66492 35.3257 3.35059 35.8 3.35059C36.2965 3.34086 36.6483 3.65935 36.6553 4.18508C36.672 5.29774 36.672 6.4104 36.6553 7.52305C36.661 7.6324 36.6438 7.74174 36.6048 7.84404C36.5657 7.94633 36.5057 8.03932 36.4285 8.117C36.3513 8.19469 36.2588 8.25535 36.1567 8.2951C36.0547 8.33485 35.9455 8.3528 35.8361 8.3478C35.3424 8.3478 35.0239 8.02792 35.0016 7.48689C34.9905 7.24489 35.0016 7.00288 35.0016 6.6969C34.6745 6.67704 34.3464 6.6803 34.0197 6.70664C33.8332 6.72019 33.6591 6.80534 33.5339 6.94428C33.4087 7.08322 33.3421 7.26518 33.3479 7.45212C33.3619 9.80817 33.2381 12.1809 33.4676 14.5189C33.8222 18.1253 37.124 20.8429 40.8389 20.8416C44.5538 20.8402 47.793 18.1142 48.2103 14.5147C48.3897 12.9848 48.3034 11.434 48.3298 9.89302C48.341 9.19761 48.3298 8.5022 48.3298 7.80679C48.3298 6.92501 48.0726 6.67742 47.1741 6.67882L46.6498 6.67605ZM23.3396 35.8276C23.0077 35.8255 22.6828 35.9223 22.4062 36.1057C22.1297 36.2892 21.9141 36.5509 21.787 36.8574C21.6599 37.164 21.6271 37.5015 21.6928 37.8268C21.7584 38.1521 21.9195 38.4504 22.1556 38.6837C22.3916 38.917 22.6919 39.0746 23.0179 39.1364C23.344 39.1982 23.681 39.1614 23.9861 39.0307C24.2911 38.9 24.5503 38.6813 24.7304 38.4026C24.9106 38.1239 25.0035 37.7978 24.9975 37.466C24.9927 37.0296 24.8159 36.6127 24.5054 36.3059C24.195 35.9991 23.776 35.8273 23.3396 35.8276Z" fill="#007BFF"/>
<path d="M1.6969 43.3101H5.84294C5.84294 42.5104 5.84294 41.7204 5.84294 40.9304C5.84294 40.4603 6.01262 40.1113 6.49801 40.0028C7.07938 39.872 7.50497 40.2615 7.50775 40.9332C7.50775 43.1015 7.50775 45.2698 7.50775 47.4381V48.2893H29.1614V41.203C29.1614 41.064 29.1614 40.9249 29.1614 40.7858C29.2059 40.2879 29.53 39.9847 30.0098 39.9819C30.4897 39.9791 30.804 40.2823 30.8151 40.8066C30.8318 41.6203 30.8151 42.4339 30.8151 43.2837H34.9876C34.9876 42.5243 34.9876 41.7663 34.9876 41.0097C34.9876 40.3254 35.2657 39.9875 35.8221 39.9861C36.3784 39.9847 36.6566 40.324 36.6566 41.0028C36.6566 43.6574 36.6566 46.312 36.6566 48.9666C36.6566 49.6801 36.3562 49.9819 35.6441 49.9819C24.1077 49.9819 12.5708 49.9819 1.03348 49.9819C0.315812 49.9819 0.0140101 49.6843 0.0140101 48.9736C0.0140101 45.0361 -0.0235468 41.0973 0.0265228 37.1599C0.0988454 31.4645 4.96395 26.687 10.6413 26.6648C11.32 26.6648 11.6677 26.943 11.6746 27.4826C11.6816 28.0222 11.3478 28.3171 10.6663 28.331C8.56894 28.3838 6.68021 29.0375 5.05713 30.3727C2.89996 32.1474 1.76645 34.4562 1.69135 37.2462C1.6385 39.153 1.67882 41.0626 1.67882 42.9708C1.68299 43.0723 1.68299 43.1738 1.6969 43.3101ZM5.82069 45.0264H1.70247V48.2907H5.82069V45.0264ZM30.8638 45.0125V48.2795H34.9667V45.0125H30.8638Z" fill="#007BFF"/>
</g>
<defs>
<clipPath id="clip0_555_3595">
<rect width="50" height="49.9847" fill="white"/>
</clipPath>
</defs>
</svg>
