<svg width="50" height="50" viewBox="0 0 50 50" fill="none" xmlns="http://www.w3.org/2000/svg">
<g clip-path="url(#clip0_554_3401)">
<path d="M0 32.9426V16.9583C0.0260417 16.9192 0.0690114 16.8814 0.0742197 16.8398C0.376303 14.5937 2.47266 12.3905 5.48047 12.4687C6.94401 12.5064 8.41016 12.4752 9.875 12.4752H10.4245V11.8241C10.4245 9.53377 10.4115 7.24341 10.444 4.95435C10.4635 3.55461 11.0573 2.38533 12.0599 1.41789C12.8685 0.636637 13.8672 0.246012 14.9414 -0.00268555H35.0586C35.0846 0.0155436 35.1068 0.0467937 35.1354 0.0533041C38.138 0.772054 39.5742 2.59237 39.5755 5.68481V12.4752H40.1745C41.737 12.4752 43.2995 12.4596 44.862 12.4752C45.9516 12.4865 47.0099 12.8411 47.8864 13.4887C48.7628 14.1362 49.4126 15.0437 49.7435 16.0819C49.8385 16.371 49.9154 16.664 50.0039 16.9556V32.9426C49.972 32.9774 49.9465 33.0175 49.9284 33.0611C49.3138 35.8411 47.3594 37.4231 44.5273 37.4257H39.5794V38.0194C39.5794 40.1458 39.5794 42.2734 39.5794 44.3997C39.5889 44.789 39.565 45.1785 39.5078 45.5637C39.0417 48.1497 36.9427 49.8958 34.2799 49.8997C28.1645 49.9075 22.0482 49.9075 15.931 49.8997C12.6367 49.8997 10.4375 47.6991 10.4336 44.3984C10.4336 42.256 10.4336 40.1132 10.4336 37.97V37.4726C10.3796 37.4544 10.3243 37.44 10.2682 37.4296C8.5612 37.4296 6.85287 37.4413 5.14453 37.4192C4.05589 37.406 2.99893 37.051 2.12316 36.4042C1.24738 35.7574 0.597113 34.8516 0.264323 33.815C0.16276 33.5299 0.0846354 33.2343 0 32.9426ZM39.5755 35.3528C41.2682 35.3528 42.8828 35.3528 44.4922 35.3528C46.625 35.3528 47.9232 34.0507 47.9245 31.9166C47.9245 27.2725 47.9245 22.6284 47.9245 17.9843C47.9245 15.8476 46.6224 14.5507 44.4935 14.5481C42.3312 14.5481 40.1675 14.5481 38.0026 14.5481C27.1328 14.5481 16.2635 14.5481 5.39453 14.5481C3.41146 14.5481 2.08203 15.8749 2.07812 17.8515C2.07031 22.5763 2.07031 27.3024 2.07812 32.0299C2.07812 34.0325 3.40885 35.345 5.42448 35.3541C6.92188 35.3606 8.41927 35.3541 9.91536 35.3541C10.0716 35.3541 10.2279 35.3359 10.4258 35.3241V34.7512C10.4258 32.6236 10.4258 30.4969 10.4258 28.371C10.4258 27.3684 10.7695 27.0247 11.776 27.0247H38.237C39.2305 27.0247 39.5742 27.3762 39.5742 28.3853C39.5742 30.5129 39.5742 32.6397 39.5742 34.7655L39.5755 35.3528ZM12.5 29.134V29.6731C12.5 34.5941 12.5 39.5151 12.5 44.4361C12.5 46.5194 13.8021 47.8215 15.8711 47.8215C21.957 47.8215 28.0434 47.8215 34.1302 47.8215C36.2031 47.8215 37.4987 46.509 37.5 44.4296C37.5 39.5077 37.5 34.5867 37.5 29.6666V29.1288L12.5 29.134ZM12.5078 12.4387H37.5V5.53768C37.5 3.33325 36.2279 2.06763 34.0117 2.06632C30.595 2.06632 27.1775 2.06632 23.7591 2.06632C21.0898 2.06632 18.4206 2.05721 15.7513 2.06632C13.9948 2.07544 12.5651 3.29679 12.5234 4.94132C12.4622 7.43221 12.5078 9.91658 12.5078 12.4361V12.4387Z" fill="#007BFF"/>
<path d="M23.9477 39.4973H18.0949C17.9321 39.4973 17.7681 39.4973 17.6066 39.4843C17.3613 39.4673 17.1311 39.3599 16.9605 39.1828C16.79 39.0058 16.6912 38.7717 16.6834 38.526C16.6647 38.2722 16.7416 38.0207 16.8989 37.8207C17.0562 37.6207 17.2827 37.4868 17.5337 37.4452C17.6948 37.4255 17.8572 37.4194 18.0194 37.427H29.9204C30.0668 37.4207 30.2135 37.4255 30.3592 37.4413C30.6108 37.4791 30.8398 37.6076 31.0032 37.8026C31.1665 37.9976 31.2529 38.2456 31.2459 38.4999C31.2379 38.7542 31.1352 38.9962 30.9579 39.1786C30.7806 39.361 30.5415 39.4705 30.2876 39.4856C30.0128 39.5064 29.7355 39.4973 29.4582 39.4973H23.9477Z" fill="#007BFF"/>
<path d="M23.9233 43.664C21.9076 43.664 19.8916 43.664 17.8751 43.664C17.2761 43.664 16.866 43.4036 16.7214 42.9517C16.6686 42.8007 16.6523 42.6394 16.6737 42.4809C16.6951 42.3223 16.7538 42.1711 16.8448 42.0396C16.9359 41.908 17.0567 41.7999 17.1975 41.724C17.3383 41.6481 17.4951 41.6065 17.655 41.6028C18.3204 41.5715 18.9871 41.5898 19.6537 41.5898C23.0522 41.5898 26.4502 41.5898 29.8477 41.5898C30.0589 41.5796 30.2706 41.5918 30.4793 41.6262C30.7167 41.6889 30.9239 41.8343 31.0636 42.0363C31.2033 42.2383 31.2662 42.4835 31.241 42.7278C31.2143 42.9814 31.0947 43.2161 30.9053 43.3868C30.7158 43.5575 30.4699 43.652 30.2149 43.6523C29.2553 43.6705 28.297 43.6588 27.3373 43.6588L23.9233 43.664Z" fill="#007BFF"/>
<path d="M19.7278 35.3528C19.0924 35.3528 18.4583 35.3645 17.8229 35.3528C17.1119 35.3359 16.6744 34.9166 16.6822 34.2929C16.6822 33.6926 17.1223 33.2747 17.8059 33.2655C19.1236 33.2517 20.4418 33.2517 21.7604 33.2655C22.4596 33.2734 22.9257 33.7213 22.9153 34.3241C22.9049 34.927 22.4518 35.3215 21.7773 35.3554H19.7278V35.3528Z" fill="#007BFF"/>
</g>
<defs>
<clipPath id="clip0_554_3401">
<rect width="50" height="49.9049" fill="white"/>
</clipPath>
</defs>
</svg>
