<svg width="48" height="48" viewBox="0 0 48 48" fill="none" xmlns="http://www.w3.org/2000/svg">
<path d="M47.6097 24.0738C47.6097 29.434 47.6097 34.7941 47.6097 40.1543C47.6097 44.5595 44.5514 47.6089 40.1344 47.6104C29.3659 47.6104 18.5963 47.6104 7.82579 47.6104C3.46486 47.6104 0.390391 44.5418 0.388916 40.1912C0.388916 29.3971 0.388916 18.603 0.388916 7.80883C0.388916 3.47151 3.47814 0.391124 7.82727 0.389648H40.1359C44.5485 0.389648 47.6082 3.44495 47.6097 7.84718C47.6116 13.2546 47.6116 18.6634 47.6097 24.0738ZM5.12161 24C5.12161 29.3602 5.12161 34.7204 5.12161 40.0806C5.12161 42.0191 5.97431 42.8836 7.90103 42.8836H40.0621C42.0405 42.8836 42.877 42.0412 42.877 40.0481C42.877 29.3533 42.877 18.6585 42.877 7.96373C42.877 5.97506 42.0361 5.1312 40.0592 5.1312H7.90546C5.9876 5.1312 5.12899 5.98981 5.12899 7.93423C5.12211 13.2856 5.11964 18.6408 5.12161 24Z" fill="#007BFF"/>
<path d="M14.6196 12.2305H19.2535V21.5705H28.6717V12.2688H33.3926V35.7391H28.7174V26.4138H19.3037V35.742H14.6182L14.6196 12.2305Z" fill="#007BFF"/>
</svg>
