<?xml version="1.0" encoding="UTF-8"?>
<svg version="1.1" xmlns="http://www.w3.org/2000/svg" width="256" height="256">
<path d="M0 0 C1.00842453 -0.00960754 2.01684906 -0.01921509 3.05583191 -0.02911377 C4.67622124 -0.03548859 4.67622124 -0.03548859 6.3293457 -0.04199219 C8.01445 -0.0505423 8.01445 -0.0505423 9.7335968 -0.05926514 C12.10982323 -0.06870168 14.48606266 -0.07524377 16.86230469 -0.07910156 C20.47460136 -0.08878535 24.0863236 -0.11981346 27.69848633 -0.15136719 C30.01293609 -0.15790006 32.32738991 -0.16314941 34.6418457 -0.16699219 C36.2470533 -0.18551239 36.2470533 -0.18551239 37.88468933 -0.20440674 C49.59287622 -0.17009906 58.15479554 2.58895216 66.5402832 10.86035156 C73.48540286 18.45390991 74.98369693 26.42861688 74.9152832 36.52441406 C74.91316078 37.71238838 74.91316078 37.71238838 74.91099548 38.92436218 C74.90542153 41.440825 74.89287388 43.95719712 74.88012695 46.47363281 C74.87510859 48.18522006 74.87054627 49.89680872 74.86645508 51.60839844 C74.85546063 55.79267789 74.83821402 59.97689 74.81762695 64.16113281 C75.85580566 64.14542236 76.89398438 64.12971191 77.96362305 64.11352539 C81.85872471 64.05874224 85.75379315 64.02460896 89.64916992 63.99633789 C91.32696278 63.98136047 93.00471723 63.96097128 94.68237305 63.93481445 C107.74218211 63.73646714 118.69615146 63.86678865 128.81762695 73.16113281 C135.79901544 80.04753642 138.90248163 87.48466977 138.97875977 97.34350586 C138.98836731 98.35193039 138.99797485 99.36035492 139.00787354 100.39933777 C139.01424835 102.0197271 139.01424835 102.0197271 139.02075195 103.67285156 C139.02645203 104.79625443 139.0321521 105.91965729 139.0380249 107.07710266 C139.04746144 109.45332909 139.05400353 111.82956852 139.05786133 114.20581055 C139.06754512 117.81810722 139.09857322 121.42982945 139.13012695 125.04199219 C139.13665982 127.35644195 139.14190918 129.67089577 139.14575195 131.98535156 C139.15809875 133.05548996 139.17044556 134.12562836 139.1831665 135.22819519 C139.14885882 146.93638208 136.3898076 155.4983014 128.1184082 163.88378906 C120.52484986 170.82890872 112.55014289 172.32720279 102.4543457 172.25878906 C101.66236282 172.25737411 100.87037994 172.25595917 100.05439758 172.25450134 C97.53793477 172.24892739 95.02156264 172.23637974 92.50512695 172.22363281 C90.7935397 172.21861444 89.08195105 172.21405213 87.37036133 172.20996094 C83.18608187 172.19896649 79.00186976 172.18171988 74.81762695 172.16113281 C74.84119263 173.71840088 74.84119263 173.71840088 74.86523438 175.30712891 C74.92001752 179.20223057 74.9541508 183.09729901 74.98242188 186.99267578 C74.99739929 188.67046864 75.01778849 190.34822309 75.04394531 192.02587891 C75.24229262 205.08568797 75.11197111 216.03965732 65.81762695 226.16113281 C58.93122335 233.1425213 51.49408999 236.24598749 41.63525391 236.32226562 C40.62682938 236.33187317 39.61840485 236.34148071 38.579422 236.35137939 C37.49916245 236.35562927 36.41890289 236.35987915 35.3059082 236.36425781 C34.18250534 236.36995789 33.05910248 236.37565796 31.9016571 236.38153076 C29.52543068 236.3909673 27.14919125 236.39750939 24.77294922 236.40136719 C21.16065254 236.41105098 17.54893031 236.44207908 13.93676758 236.47363281 C11.62231781 236.48016568 9.307864 236.48541504 6.9934082 236.48925781 C5.92326981 236.50160461 4.85313141 236.51395142 3.75056458 236.52667236 C-7.95762232 236.49236468 -16.51954163 233.73331346 -24.9050293 225.46191406 C-31.85014895 217.86835572 -33.34844303 209.89364875 -33.2800293 199.79785156 C-33.27861435 199.00586868 -33.2771994 198.2138858 -33.27574158 197.39790344 C-33.27016762 194.88144063 -33.25761997 192.3650685 -33.24487305 189.84863281 C-33.23985468 188.13704556 -33.23529236 186.42545691 -33.23120117 184.71386719 C-33.22020673 180.52958773 -33.20296012 176.34537562 -33.18237305 172.16113281 C-34.73964111 172.18469849 -34.73964111 172.18469849 -36.32836914 172.20874023 C-40.2234708 172.26352338 -44.11853924 172.29765666 -48.01391602 172.32592773 C-49.69170888 172.34090515 -51.36946333 172.36129435 -53.04711914 172.38745117 C-66.1069282 172.58579848 -77.06089756 172.45547697 -87.18237305 163.16113281 C-94.16376153 156.2747292 -97.26722773 148.83759585 -97.34350586 138.97875977 C-97.3531134 137.97033524 -97.36272095 136.96191071 -97.37261963 135.92292786 C-97.37686951 134.8426683 -97.38111938 133.76240875 -97.38549805 132.64941406 C-97.39404816 130.96430977 -97.39404816 130.96430977 -97.402771 129.24516296 C-97.41220754 126.86893654 -97.41874963 124.49269711 -97.42260742 122.11645508 C-97.43229121 118.5041584 -97.46331932 114.89243617 -97.49487305 111.28027344 C-97.50140592 108.96582367 -97.50665527 106.65136986 -97.51049805 104.33691406 C-97.52284485 103.26677567 -97.53519165 102.19663727 -97.5479126 101.09407043 C-97.51360492 89.38588354 -94.75455369 80.82396423 -86.4831543 72.43847656 C-78.88959595 65.49335691 -70.91488898 63.99506283 -60.8190918 64.06347656 C-59.63111748 64.06559898 -59.63111748 64.06559898 -58.41914368 64.06776428 C-55.90268086 64.07333824 -53.38630873 64.08588589 -50.86987305 64.09863281 C-49.15828579 64.10365118 -47.44669714 64.1082135 -45.73510742 64.11230469 C-41.55082797 64.12329913 -37.36661586 64.14054574 -33.18237305 64.16113281 C-33.1980835 63.1229541 -33.21379395 62.08477539 -33.22998047 61.01513672 C-33.28476362 57.12003506 -33.3188969 53.22496662 -33.34716797 49.32958984 C-33.36214539 47.65179698 -33.38253458 45.97404253 -33.40869141 44.29638672 C-33.60703871 31.23657766 -33.47671721 20.2826083 -24.18237305 10.16113281 C-17.29596944 3.17974433 -9.85883608 0.07627813 0 0 Z M-9.05737305 27.09863281 C-10.98618912 30.63479561 -11.3060714 33.86207197 -11.30834961 37.8503418 C-11.31215637 38.77487656 -11.31596313 39.69941132 -11.31988525 40.65196228 C-11.32091248 41.64369949 -11.3219397 42.63543671 -11.32299805 43.65722656 C-11.34131969 45.76335722 -11.3608894 47.86947733 -11.3815918 49.97558594 C-11.41059989 53.29160473 -11.43237427 56.60694159 -11.43286133 59.9230957 C-11.43619277 63.12675292 -11.47071635 66.32884148 -11.51049805 69.53222656 C-11.50342834 70.52193954 -11.49635864 71.51165253 -11.48907471 72.53135681 C-11.56632345 76.89692979 -11.78203532 79.49682531 -14.06665039 83.2878418 C-18.60321444 86.01539672 -22.50376692 85.83350523 -27.70581055 85.76269531 C-28.72534821 85.7707016 -29.74488586 85.77870789 -30.7953186 85.78695679 C-34.04974187 85.81001441 -37.30291631 85.8005714 -40.55737305 85.78613281 C-43.80445525 85.78227871 -47.05098365 85.78578926 -50.29800415 85.80673218 C-52.31585415 85.81876841 -54.33385962 85.81623992 -56.35165405 85.79702759 C-62.08145538 85.81968934 -66.12119949 86.4092719 -71.18237305 89.16113281 C-74.67508046 92.77026381 -75.29687425 96.4688366 -75.34350586 101.35961914 C-75.3531134 102.17759476 -75.36272095 102.99557037 -75.37261963 103.83833313 C-75.37686951 104.71442734 -75.38111938 105.59052155 -75.38549805 106.49316406 C-75.39119812 107.40313644 -75.39689819 108.31310883 -75.402771 109.25065613 C-75.41220699 111.17466067 -75.41874941 113.09868127 -75.42260742 115.02270508 C-75.43230345 117.952601 -75.46333612 120.88179231 -75.49487305 123.81152344 C-75.50140467 125.68456617 -75.50665452 127.55761389 -75.51049805 129.43066406 C-75.52284485 130.30068558 -75.53519165 131.17070709 -75.5479126 132.0670929 C-75.52809835 137.53007243 -74.75877749 141.31760249 -72.18237305 146.16113281 C-68.41170026 149.810171 -64.58564219 150.28420042 -59.49316406 150.28710938 C-58.5686293 150.29091614 -57.64409454 150.2947229 -56.69154358 150.29864502 C-55.69980637 150.29967224 -54.70806915 150.30069946 -53.6862793 150.30175781 C-51.58014864 150.32007945 -49.47402853 150.33964916 -47.36791992 150.36035156 C-44.05190113 150.38935966 -40.73656427 150.41113403 -37.42041016 150.41162109 C-34.21675294 150.41495254 -31.01466438 150.44947611 -27.8112793 150.48925781 C-26.82156631 150.48218811 -25.83185333 150.47511841 -24.81214905 150.46783447 C-20.3580287 150.54665006 -17.86403403 150.71997335 -14.06225586 153.18041992 C-11.66609328 156.97973796 -11.4528149 160.16155046 -11.4753418 164.52441406 C-11.46022049 165.31639694 -11.44509918 166.10837982 -11.42951965 166.92436218 C-11.38670925 169.44107684 -11.37781173 171.95659063 -11.36987305 174.47363281 C-11.34672335 176.18525313 -11.32135702 177.896845 -11.29370117 179.60839844 C-11.23091535 183.79274906 -11.19852805 187.97635285 -11.18237305 192.16113281 C-7.12011484 192.27751707 -3.05828675 192.34844654 1.00512695 192.41113281 C2.73085937 192.46140625 2.73085937 192.46140625 4.49145508 192.51269531 C5.60327148 192.52558594 6.71508789 192.53847656 7.8605957 192.55175781 C8.8817749 192.57270508 9.9029541 192.59365234 10.95507812 192.61523438 C14.6727365 192.02548217 16.22369235 190.86779829 18.81762695 188.16113281 C21.51512447 182.81799318 21.09685965 177.06575004 21.09106445 171.21582031 C21.11134097 169.06607541 21.1321915 166.91633585 21.15356445 164.76660156 C21.17622017 161.39139256 21.19266102 158.01639502 21.19848633 154.64111328 C21.20798523 151.37396497 21.24171515 148.10775838 21.27856445 144.84082031 C21.27351898 143.83034637 21.26847351 142.81987244 21.26327515 141.77877808 C21.36153981 134.80467285 21.36153981 134.80467285 23.66381836 131.55615234 C27.01428168 129.38606082 29.68129835 129.03525744 33.5769043 129.01928711 C34.54155609 129.01225266 35.50620789 129.0052182 36.50009155 128.99797058 C37.54073761 128.9938063 38.58138367 128.98964203 39.65356445 128.98535156 C41.85409488 128.96215641 44.05461576 128.9380392 46.25512695 128.91308594 C49.72687203 128.87794582 53.19826457 128.84861104 56.67016602 128.83520508 C60.01923311 128.81973979 63.36726937 128.77954157 66.71606445 128.73535156 C67.75266205 128.73725998 68.78925964 128.7391684 69.85726929 128.74113464 C74.16523504 128.66796719 77.0552602 128.57373274 80.88647461 126.50024414 C84.93704155 121.59398854 85.06239011 116.7565271 85.01293945 110.57519531 C85.01010956 109.87341156 85.00727966 109.17162781 85.00436401 108.44857788 C84.99325207 106.22758253 84.96816529 104.00700436 84.94262695 101.78613281 C84.93258549 100.27181576 84.92346169 98.75749232 84.9152832 97.24316406 C84.8933425 93.54902023 84.85887571 89.8551173 84.81762695 86.16113281 C84.05619385 86.15702393 83.29476074 86.15291504 82.51025391 86.14868164 C79.0494303 86.11572142 75.59036124 86.04507227 72.13012695 85.97363281 C70.93194336 85.96783203 69.73375977 85.96203125 68.49926758 85.95605469 C67.34233398 85.92705078 66.18540039 85.89804688 64.9934082 85.86816406 C63.39879761 85.84459839 63.39879761 85.84459839 61.77197266 85.82055664 C57.6121385 84.89206213 56.24459224 83.67311379 53.81762695 80.16113281 C53.11984604 76.64779636 53.16744168 73.20976294 53.21606445 69.63769531 C53.20805817 68.61815765 53.20005188 67.59862 53.19180298 66.54818726 C53.16874536 63.29376399 53.17818837 60.04058955 53.19262695 56.78613281 C53.19648106 53.53905061 53.1929705 50.29252221 53.17202759 47.04550171 C53.15999135 45.02765171 53.16251985 43.00964624 53.18173218 40.99185181 C53.15907043 35.26205048 52.56948787 31.22230637 49.81762695 26.16113281 C46.20849596 22.6684254 42.50992317 22.04663161 37.61914062 22 C36.80116501 21.99039246 35.98318939 21.98078491 35.14042664 21.97088623 C33.82628532 21.96451141 33.82628532 21.96451141 32.4855957 21.95800781 C31.57562332 21.95230774 30.66565094 21.94660767 29.72810364 21.94073486 C27.8040991 21.93129887 25.8800785 21.92475645 23.95605469 21.92089844 C21.02615877 21.91120241 18.09696746 21.88016974 15.16723633 21.84863281 C13.2941936 21.84210119 11.42114588 21.83685134 9.5480957 21.83300781 C8.67807419 21.82066101 7.80805267 21.80831421 6.91166687 21.79559326 C0.77954377 21.81783449 -4.58132942 22.47338774 -9.05737305 27.09863281 Z " fill="#1E92FC" transform="translate(107.182373046875,9.8388671875)"/>
<path d="M0 0 C1.06669922 0.00322266 2.13339844 0.00644531 3.23242188 0.00976562 C4.88661133 0.02233398 4.88661133 0.02233398 6.57421875 0.03515625 C7.69634766 0.03966797 8.81847656 0.04417969 9.97460938 0.04882812 C12.73703385 0.06058312 15.49934873 0.07701548 18.26171875 0.09765625 C17.47796875 0.71640625 16.69421875 1.33515625 15.88671875 1.97265625 C12.4025539 4.51493388 12.4025539 4.51493388 10.890625 8.26953125 C10.85775391 9.54570312 10.85775391 9.54570312 10.82421875 10.84765625 C10.78425781 11.688125 10.74429688 12.52859375 10.703125 13.39453125 C11.51308864 17.31407558 13.56046208 19.17876279 16.26171875 22.09765625 C14.54275391 22.15373047 14.54275391 22.15373047 12.7890625 22.2109375 C11.25908429 22.27664209 9.72913778 22.34308784 8.19921875 22.41015625 C7.0709668 22.44399414 7.0709668 22.44399414 5.91992188 22.47851562 C0.71498734 22.72636965 -3.23821548 23.37289732 -7.73828125 26.09765625 C-11.08164282 31.98343686 -11.15140552 37.22376472 -11.109375 43.88671875 C-11.12674697 45.98307464 -11.14433145 48.07942877 -11.16210938 50.17578125 C-11.1722023 53.45869053 -11.1757715 56.74148986 -11.17407227 60.02441406 C-11.17763919 63.2080128 -11.20495773 66.39076975 -11.234375 69.57421875 C-11.22619247 70.55452057 -11.21800995 71.53482239 -11.20957947 72.54483032 C-11.25735349 76.91496656 -11.31229172 79.40605741 -13.64477539 83.19287109 C-16.62957267 85.90860152 -18.23419785 86.2237954 -22.16870117 86.25537109 C-23.54604683 86.27076431 -23.54604683 86.27076431 -24.95121765 86.28646851 C-26.44489616 86.2974205 -26.44489616 86.2974205 -27.96875 86.30859375 C-30.07227327 86.33667287 -32.17578878 86.3653374 -34.27929688 86.39453125 C-37.59936216 86.43572252 -40.91928444 86.47260456 -44.23950195 86.49902344 C-47.44122354 86.5267171 -50.64228473 86.57260166 -53.84375 86.62109375 C-55.32224678 86.62597305 -55.32224678 86.62597305 -56.83061218 86.63095093 C-62.50311205 86.73156567 -66.88473135 87.01802661 -71.73828125 90.09765625 C-75.07914951 95.48807939 -75.1806353 100.49888695 -75.13671875 106.72265625 C-75.13958893 107.62838379 -75.14245911 108.53411133 -75.14541626 109.46728516 C-75.14744865 111.37337879 -75.14197681 113.27949368 -75.12939453 115.18554688 C-75.11332904 118.08901991 -75.12927132 120.99110108 -75.1484375 123.89453125 C-75.14645492 125.7539093 -75.14261094 127.61328648 -75.13671875 129.47265625 C-75.14279144 130.3332666 -75.14886414 131.19387695 -75.15512085 132.08056641 C-75.09275467 137.47368006 -74.61239162 141.4603375 -71.73828125 146.09765625 C-66.07537883 149.69535662 -60.51044248 149.51013879 -53.94921875 149.46875 C-51.85286286 149.48612197 -49.75650873 149.50370645 -47.66015625 149.52148438 C-44.37724697 149.5315773 -41.09444764 149.5351465 -37.81152344 149.53344727 C-34.6279247 149.53701419 -31.44516775 149.56433273 -28.26171875 149.59375 C-27.28141693 149.58556747 -26.30111511 149.57738495 -25.29110718 149.56895447 C-20.92097094 149.61672849 -18.42988009 149.67166672 -14.64306641 152.00415039 C-11.84014027 155.08478249 -11.61098839 156.76660676 -11.58056641 160.83520508 C-11.57030426 161.81995316 -11.56004211 162.80470123 -11.54946899 163.81929016 C-11.54216766 164.88697128 -11.53486633 165.9546524 -11.52734375 167.0546875 C-11.49927373 169.30404372 -11.47060925 171.55339258 -11.44140625 173.80273438 C-11.40013937 177.35782659 -11.36326179 180.91278171 -11.33691406 184.46801758 C-11.30931409 187.89303141 -11.26343856 191.31741583 -11.21484375 194.7421875 C-11.21159088 195.80379593 -11.20833801 196.86540436 -11.20498657 197.95918274 C-11.17770063 205.05761811 -11.17770063 205.05761811 -7.73828125 211.09765625 C-4.5540728 213.22046188 -3.5329087 213.37785162 0.1484375 213.51171875 C1.55512695 213.56972656 1.55512695 213.56972656 2.99023438 213.62890625 C3.96669922 213.65984375 4.94316406 213.69078125 5.94921875 213.72265625 C7.43131836 213.78066406 7.43131836 213.78066406 8.94335938 213.83984375 C11.38262582 213.93411492 13.8218847 214.01971843 16.26171875 214.09765625 C14.99422201 215.54622396 13.72672526 216.99479167 12.45922852 218.44335938 C10.3950032 221.29497828 10.19996001 223.63916657 10.26171875 227.09765625 C11.98591498 230.24877351 13.73178194 232.56771944 16.26171875 235.09765625 C11.9704195 235.24443296 7.67977651 235.33222211 3.38671875 235.41015625 C1.58074219 235.47299805 1.58074219 235.47299805 -0.26171875 235.53710938 C-10.19383042 235.67205654 -17.08495607 233.51881741 -24.55078125 226.91015625 C-31.90046801 218.96971452 -33.90720736 210.25165067 -33.8359375 199.734375 C-33.83452255 198.94239212 -33.8331076 198.15040924 -33.83164978 197.33442688 C-33.82607582 194.81796406 -33.81352818 192.30159194 -33.80078125 189.78515625 C-33.79576288 188.073569 -33.79120056 186.36198034 -33.78710938 184.65039062 C-33.77611493 180.46611117 -33.75886832 176.28189906 -33.73828125 172.09765625 C-35.29554932 172.12122192 -35.29554932 172.12122192 -36.88427734 172.14526367 C-40.77937901 172.20004682 -44.67444745 172.2341801 -48.56982422 172.26245117 C-50.24761708 172.27742859 -51.92537153 172.29781779 -53.60302734 172.32397461 C-66.6628364 172.52232192 -77.61680576 172.39200041 -87.73828125 163.09765625 C-94.71966974 156.21125264 -97.82313593 148.77411929 -97.89941406 138.9152832 C-97.90902161 137.90685867 -97.91862915 136.89843414 -97.92852783 135.85945129 C-97.93277771 134.77919174 -97.93702759 133.69893219 -97.94140625 132.5859375 C-97.94995636 130.90083321 -97.94995636 130.90083321 -97.9586792 129.1816864 C-97.96811574 126.80545998 -97.97465783 124.42922055 -97.97851562 122.05297852 C-97.98819942 118.44068184 -98.01922752 114.82895961 -98.05078125 111.21679688 C-98.05731412 108.90234711 -98.06256348 106.5878933 -98.06640625 104.2734375 C-98.07875305 103.2032991 -98.09109985 102.13316071 -98.1038208 101.03059387 C-98.06951312 89.32240698 -95.3104619 80.76048767 -87.0390625 72.375 C-79.44550416 65.42988035 -71.47079719 63.93158627 -61.375 64 C-60.18702568 64.00212242 -60.18702568 64.00212242 -58.97505188 64.00428772 C-56.45858906 64.00986168 -53.94221694 64.02240932 -51.42578125 64.03515625 C-49.714194 64.04017462 -48.00260534 64.04473694 -46.29101562 64.04882812 C-42.10673617 64.05982257 -37.92252406 64.07706918 -33.73828125 64.09765625 C-33.7539917 63.05947754 -33.76970215 62.02129883 -33.78588867 60.95166016 C-33.84067182 57.05655849 -33.8748051 53.16149005 -33.90307617 49.26611328 C-33.91805359 47.58832042 -33.93844279 45.91056597 -33.96459961 44.23291016 C-34.16294692 31.1731011 -34.03262541 20.21913174 -24.73828125 10.09765625 C-17.66510506 2.92691901 -10.1056962 -0.05404116 0 0 Z " fill="#024493" transform="translate(107.73828125,9.90234375)"/>
<path d="M0 0 C3.70818297 -0.08756305 7.41609763 -0.14058015 11.125 -0.1875 C12.17171875 -0.21263672 13.2184375 -0.23777344 14.296875 -0.26367188 C24.43747384 -0.35994338 24.43747384 -0.35994338 29 3 C32.97575697 7.74177231 32.45075689 12.89980823 32.43359375 18.77734375 C32.4388356 19.82144913 32.44407745 20.8655545 32.44947815 21.94129944 C32.45589197 24.14599723 32.45456966 26.35072928 32.44604492 28.55541992 C32.43753832 31.92233438 32.46630136 35.28755005 32.49804688 38.65429688 C32.49965914 40.79947866 32.49908088 42.94466344 32.49609375 45.08984375 C32.50732773 46.09313217 32.51856171 47.09642059 32.53013611 48.13011169 C32.47317847 53.8641837 32.09611192 57.61371943 28 62 C24.60134038 63.65335579 21.86693377 64.24964218 18.10546875 64.25537109 C17.16098877 64.26233002 16.21650879 64.26928894 15.2434082 64.27645874 C14.2349585 64.27546173 13.22650879 64.27446472 12.1875 64.2734375 C10.03905723 64.29372026 7.89061976 64.31457092 5.7421875 64.3359375 C2.36486319 64.35856449 -1.01225171 64.37502118 -4.38964844 64.38085938 C-7.65598084 64.39037389 -10.92137713 64.42413107 -14.1875 64.4609375 C-15.19594971 64.45589203 -16.20439941 64.45084656 -17.2434082 64.44564819 C-21.67490836 64.50787934 -24.2720729 64.55372224 -28.11328125 66.90869141 C-30.86873198 69.96293455 -31.12536173 71.61275527 -31.1418457 75.62988281 C-31.14888016 76.59138245 -31.15591461 77.55288208 -31.16316223 78.54351807 C-31.16940865 80.1075235 -31.16940865 80.1075235 -31.17578125 81.703125 C-31.1989834 83.90235328 -31.22310089 86.10157206 -31.24804688 88.30078125 C-31.28314381 91.77464108 -31.31249286 95.24815254 -31.32592773 98.72216797 C-31.34141786 102.07041873 -31.38164134 105.41764528 -31.42578125 108.765625 C-31.42387283 109.80019836 -31.42196442 110.83477173 -31.41999817 111.9006958 C-31.5181223 117.69682082 -31.84266239 121.57561197 -36 126 C-39.38075607 127.63771856 -42.13934897 128.25808459 -45.87866211 128.30639648 C-47.29054054 128.33037758 -47.29054054 128.33037758 -48.73094177 128.35484314 C-49.73625443 128.36020584 -50.74156708 128.36556854 -51.77734375 128.37109375 C-52.82144913 128.38012222 -53.8655545 128.3891507 -54.94129944 128.39845276 C-57.14597717 128.41293778 -59.35069771 128.42183764 -61.55541992 128.42553711 C-64.92244922 128.43744676 -68.28765332 128.48666263 -71.65429688 128.53710938 C-73.79947025 128.54657262 -75.94465484 128.55380813 -78.08984375 128.55859375 C-79.09313217 128.57812607 -80.09642059 128.59765839 -81.13011169 128.61778259 C-85.66219041 128.58861634 -88.9762363 128.53533663 -92.61938477 125.65258789 C-96.37841551 121.46410783 -96.11249342 118.2617831 -96.0625 112.8125 C-96.05347656 111.54019531 -96.04445313 110.26789063 -96.03515625 108.95703125 C-96.02355469 107.98121094 -96.01195313 107.00539063 -96 106 C-95.26885986 105.99589111 -94.53771973 105.99178223 -93.78442383 105.98754883 C-90.45963693 105.95457791 -87.13667384 105.88392853 -83.8125 105.8125 C-82.66201172 105.80669922 -81.51152344 105.80089844 -80.32617188 105.79492188 C-73.60781944 105.69109919 -73.60781944 105.69109919 -67.76171875 102.69921875 C-65.24359548 98.84107423 -64.87656744 95.77013198 -64.87402344 91.21899414 C-64.87021667 90.27443863 -64.86640991 89.32988312 -64.86248779 88.35670471 C-64.86146057 87.34309372 -64.86043335 86.32948273 -64.859375 85.28515625 C-64.84105339 83.1334529 -64.82148369 80.98175988 -64.80078125 78.83007812 C-64.77177187 75.44163482 -64.74999876 72.05385895 -64.74951172 68.6652832 C-64.74618076 65.39214006 -64.71165955 62.12053298 -64.671875 58.84765625 C-64.6789447 57.83606949 -64.6860144 56.82448273 -64.69329834 55.78224182 C-64.61140126 51.05409254 -64.56368169 48.74586707 -61.64550781 44.88452148 C-58.06761612 42.33581846 -55.51917562 41.8763587 -51.24072266 41.87402344 C-50.27607086 41.87021667 -49.31141907 41.86640991 -48.3175354 41.86248779 C-47.27688934 41.86146057 -46.23624329 41.86043335 -45.1640625 41.859375 C-42.96353129 41.84105051 -40.76301016 41.82148053 -38.5625 41.80078125 C-35.09064692 41.77178361 -31.61944311 41.74999922 -28.14746094 41.74951172 C-24.79824101 41.74618058 -21.45052216 41.71165267 -18.1015625 41.671875 C-17.0649649 41.6789447 -16.02836731 41.6860144 -14.96035767 41.69329834 C-10.21900052 41.6131389 -7.77630733 41.56821871 -3.86865234 38.70800781 C-0.70191168 34.11884039 -0.81792846 30.06970243 -0.68359375 24.609375 C-0.6524221 23.55245453 -0.6524221 23.55245453 -0.62062073 22.47418213 C-0.55546163 20.23288319 -0.49639752 17.99147136 -0.4375 15.75 C-0.39428274 14.22655103 -0.35066743 12.70311329 -0.30664062 11.1796875 C-0.19981509 7.45324409 -0.09845361 3.72667506 0 0 Z " fill="#C3E5FE" transform="translate(192,96)"/>
</svg>
