<svg width="50" height="50" viewBox="0 0 50 50" fill="none" xmlns="http://www.w3.org/2000/svg">
<g clip-path="url(#clip0_554_3458)">
<path d="M21.2903 0C22.3863 0.339234 23.1399 1.00622 23.3101 2.19198C23.3602 2.54165 23.3174 2.90385 23.3174 3.33181H23.9259C27.0333 3.33181 30.1417 3.32554 33.2501 3.34433C33.5146 3.35517 33.7667 3.45905 33.962 3.63764C37.275 6.92908 40.5776 10.2313 43.8697 13.5443C44.0262 13.6972 44.1244 13.8999 44.1474 14.1174C44.162 18.2184 44.1578 22.3185 44.1568 26.4196C44.1521 26.4924 44.1433 26.5648 44.1307 26.6367H42.4951V15.0077H32.5163V5.02798H23.3382V5.58119C23.3382 12.2204 23.3382 18.8597 23.3382 25.4989C23.3382 27.3475 22.3571 28.3266 20.5064 28.3266H7.54349V48.2976H42.4804V38.3648H44.1244V49.9614H5.85044V28.3266H4.21586C3.66265 28.3266 3.10943 28.3266 2.55622 28.3266C1.06881 28.3078 0.00830752 27.2515 0.00517612 25.762C-0.00317426 22.7997 0.00517612 19.8384 0.00517612 16.8761V3.05937C0.00517612 1.27135 0.422698 0.648198 2.05624 0H21.2903ZM1.6669 14.1685V25.4415C1.6669 26.4227 1.90071 26.6617 2.86205 26.6617H20.4814C21.4208 26.6617 21.6734 26.4123 21.6734 25.4843V2.83391C21.6734 1.90911 21.4166 1.6586 20.4751 1.6586H2.85579C1.91637 1.6586 1.66586 1.90911 1.66586 2.84018L1.6669 14.1685ZM34.1969 6.31498V13.2896H41.1903L34.1969 6.31498Z" fill="#007BFF"/>
<path d="M50.0012 28.7097C49.8039 29.5364 49.259 30.1199 48.6776 30.6992C44.1956 35.166 39.718 39.6383 35.245 44.1162C34.9788 44.3735 34.672 44.5851 34.3369 44.7425C33.077 45.3458 31.7994 45.9105 30.5354 46.5044C30.1294 46.6954 29.7515 46.7507 29.4154 46.4084C29.0793 46.066 29.1388 45.6777 29.3371 45.2821C29.3444 45.2675 29.3538 45.2539 29.3601 45.2393C30.0177 43.825 30.5083 42.2947 31.3788 41.0307C32.2347 39.7928 33.4789 38.8231 34.5603 37.7417C38.2268 34.071 41.8961 30.4024 45.5682 26.7359C46.5253 25.7798 47.8071 25.6128 48.8561 26.2829C49.5022 26.7004 49.7955 27.3267 50.0043 28.026L50.0012 28.7097ZM31.7984 44.0389C32.6616 43.6079 33.6198 43.4064 34.3379 42.682C37.5918 39.4024 40.8579 36.1356 44.1361 32.8818C44.2472 32.7867 44.3735 32.7108 44.5098 32.6574L43.2572 31.3338C43.1775 31.4458 43.0911 31.5529 42.9983 31.6543C39.8367 34.8191 36.6969 38.0058 33.4998 41.1288C32.6428 41.9628 32.2566 42.9941 31.7984 44.0389ZM46.3959 28.2985L47.5347 29.4466C48.376 28.6951 48.5294 28.2097 48.0566 27.7567C47.5837 27.3037 47.0305 27.501 46.3959 28.2985ZM45.1235 29.5656L44.6183 30.0197L45.7665 31.1846L46.279 30.743L45.1235 29.5656Z" fill="#007BFF"/>
<path d="M27.5053 38.3169C27.52 42.8887 23.7842 46.6495 19.2082 46.6672C14.6322 46.685 10.8578 42.9649 10.8401 38.3941C10.8321 37.294 11.0418 36.2032 11.457 35.1844C11.8722 34.1657 12.4849 33.2391 13.2596 32.4581C14.0344 31.677 14.9559 31.0569 15.9713 30.6334C16.9866 30.2099 18.0757 29.9914 19.1758 29.9905C23.7466 29.9947 27.4907 33.7367 27.5053 38.3169ZM25.8353 38.3054C25.8123 34.6156 22.802 31.6251 19.132 31.6585C17.376 31.6858 15.7015 32.4042 14.4717 33.6579C13.2418 34.9116 12.5556 36.5995 12.5619 38.3557C12.5683 40.1119 13.2665 41.7949 14.5054 43.0397C15.7443 44.2845 17.4239 44.9908 19.18 45.0055C22.85 44.9961 25.8561 41.9701 25.8342 38.3054H25.8353Z" fill="#007BFF"/>
<path d="M30.0103 25.7973V24.1982H39.9775V25.7973H30.0103Z" fill="#007BFF"/>
<path d="M39.9763 20.8687V22.4667H30.0278V20.8687H39.9763Z" fill="#007BFF"/>
<path d="M30.0176 19.1265V17.5232H39.9671V19.1265H30.0176Z" fill="#007BFF"/>
<path d="M39.9765 27.5344V29.144H30.0322V27.5344H39.9765Z" fill="#007BFF"/>
<path d="M28.31 24.2026V25.8059H26.689V24.2026H28.31Z" fill="#007BFF"/>
<path d="M26.6899 29.1367V27.5344H28.288V29.1367H26.6899Z" fill="#007BFF"/>
<path d="M26.6909 17.5139H28.2994V19.1276H26.6909V17.5139Z" fill="#007BFF"/>
<path d="M28.3067 20.8655V22.4604H26.6919V20.8655H28.3067Z" fill="#007BFF"/>
<path d="M20.7955 8.30029H2.54053V2.54688H20.7955V8.30029ZM19.1254 6.63021V4.21173H4.20852V6.63438L19.1254 6.63021Z" fill="#007BFF"/>
<path d="M9.17519 23.333C9.17519 23.0731 9.17519 22.8111 9.17519 22.5522C9.19189 21.571 9.82443 20.8821 10.8004 20.8331C11.3682 20.8028 11.9402 20.8059 12.508 20.8331C13.507 20.879 14.151 21.5637 14.1635 22.5752C14.1708 23.1117 14.175 23.6492 14.1635 24.1857C14.1405 25.0678 13.5372 25.742 12.6594 25.8099C12.0268 25.8567 11.3917 25.8602 10.7586 25.8203C9.80251 25.764 9.19293 25.0834 9.17728 24.1158C9.17101 23.8538 9.17519 23.5939 9.17519 23.333ZM10.8734 22.5178V24.1388H12.4746V22.5178H10.8734Z" fill="#007BFF"/>
<path d="M15.0108 23.2912C15.0108 23.0303 15.0024 22.7693 15.0108 22.5105C15.0463 21.5303 15.6893 20.8717 16.6757 20.831C17.2278 20.807 17.7831 20.807 18.3342 20.831C19.3112 20.8748 19.9709 21.546 20.0043 22.5178C20.0221 23.0543 20.021 23.5918 20.0043 24.1284C19.9761 25.1095 19.3332 25.7744 18.3509 25.8256C17.829 25.8527 17.3071 25.8433 16.7852 25.8329C15.6559 25.8089 15.0191 25.1565 15.0024 24.0229C15.0024 23.7787 15.0024 23.5344 15.0024 23.2923L15.0108 23.2912ZM16.7017 24.1263H18.3175V22.5261H16.7017V24.1263Z" fill="#007BFF"/>
<path d="M8.31708 23.3342C8.31708 23.6588 8.33483 23.9855 8.31708 24.3091C8.26698 25.0742 7.70646 25.7214 6.94136 25.7861C6.212 25.8478 5.47874 25.8478 4.74938 25.7861C3.95192 25.7203 3.37574 25.0554 3.33921 24.2287C3.31311 23.6275 3.31103 23.0242 3.33921 22.423C3.382 21.5347 4.03542 20.8854 4.94562 20.8333C5.53072 20.8004 6.11722 20.8004 6.70233 20.8333C7.66054 20.8834 8.29203 21.5493 8.32334 22.5033C8.33274 22.7799 8.32334 23.0565 8.32334 23.3331L8.31708 23.3342ZM6.623 24.1337V22.5409H5.03225V24.1337H6.623Z" fill="#007BFF"/>
<path d="M11.68 9.17595C11.9932 9.17595 12.299 9.16238 12.6069 9.17595C13.01 9.19411 13.3919 9.36176 13.6781 9.64622C13.9643 9.93067 14.1342 10.3115 14.1549 10.7145C14.1841 11.3481 14.1841 11.9848 14.1549 12.6174C14.1357 13.021 13.9665 13.4028 13.6803 13.6881C13.3941 13.9733 13.0116 14.1413 12.6079 14.159C11.9744 14.1851 11.3387 14.1883 10.7051 14.159C10.3013 14.1362 9.92077 13.9627 9.63877 13.6727C9.35677 13.3828 9.19384 12.9976 9.1822 12.5933C9.15924 11.9921 9.16341 11.3898 9.1822 10.7876C9.18631 10.3595 9.35883 9.9503 9.6624 9.64848C9.96598 9.34667 10.3762 9.17653 10.8043 9.17491C11.0976 9.16551 11.3898 9.17491 11.6831 9.17491L11.68 9.17595ZM10.8679 10.8565V12.4702H12.4723V10.8565H10.8679Z" fill="#007BFF"/>
<path d="M5.81689 9.17712C6.14255 9.17712 6.46822 9.16147 6.79284 9.17712C7.18702 9.19633 7.56016 9.36072 7.84037 9.63862C8.12058 9.91651 8.28805 10.2883 8.31052 10.6823C8.34288 11.3315 8.34184 11.9849 8.31052 12.6331C8.29192 13.0373 8.12094 13.4193 7.832 13.7025C7.54305 13.9856 7.15759 14.1488 6.75318 14.1592C6.15299 14.1821 5.54967 14.179 4.94845 14.1592C4.52822 14.1516 4.12693 13.9831 3.82741 13.6882C3.52789 13.3934 3.35302 12.9947 3.33891 12.5747C3.30969 11.9745 3.31073 11.3712 3.33891 10.77C3.38171 9.85768 4.06957 9.20426 4.98811 9.17608C5.26472 9.16877 5.54132 9.17608 5.82315 9.17608L5.81689 9.17712ZM6.63418 12.4776V10.867H5.02987V12.4776H6.63418Z" fill="#007BFF"/>
<path d="M17.4846 14.1591C17.1924 14.1591 16.8991 14.1695 16.6068 14.1591C16.1953 14.1517 15.8021 13.9875 15.5076 13.7C15.2131 13.4125 15.0395 13.0234 15.0223 12.6122C14.9931 11.9797 14.992 11.3429 15.0223 10.7104C15.0395 10.299 15.2147 9.90998 15.5113 9.62439C15.808 9.3388 16.2034 9.17858 16.6151 9.17706C17.1684 9.16036 17.7216 9.16662 18.2748 9.17706C19.2935 9.18958 19.9783 9.86805 20.0044 10.8931C20.0179 11.3972 20.0148 11.9014 20.0044 12.4055C19.9845 13.4827 19.2977 14.1549 18.2142 14.1654C17.971 14.1654 17.7268 14.1654 17.4836 14.1654L17.4846 14.1591ZM16.7133 10.8607V12.4588H18.3165V10.8607H16.7133Z" fill="#007BFF"/>
<path d="M9.17827 17.4993C9.17827 17.1861 9.16575 16.8803 9.17827 16.5724C9.1897 16.1771 9.34758 15.8001 9.62128 15.5146C9.89497 15.2292 10.265 15.0556 10.6594 15.0275C11.3252 14.9905 11.9925 14.9905 12.6583 15.0275C13.0532 15.0495 13.4257 15.2183 13.7025 15.5009C13.9793 15.7834 14.1403 16.1593 14.1541 16.5546C14.1822 17.1872 14.1833 17.8239 14.1541 18.4564C14.1144 19.3009 13.4328 19.9564 12.5539 19.9992C11.9528 20.032 11.3503 20.032 10.7492 19.9992C9.83378 19.9438 9.19811 19.2487 9.17515 18.3291C9.16888 18.0535 9.17515 17.7769 9.17515 17.5003L9.17827 17.4993ZM12.4767 16.7122H10.8786V18.3134H12.4767V16.7122Z" fill="#007BFF"/>
<path d="M8.3252 17.4899C8.3252 17.7665 8.33251 18.0431 8.3252 18.3249C8.29493 19.279 7.65508 19.9585 6.71044 20.0034C6.12696 20.0315 5.5393 20.0315 4.95477 20.0034C4.01536 19.9574 3.3609 19.2664 3.3348 18.3218C3.31915 17.7686 3.31706 17.2143 3.3348 16.6622C3.36612 15.7154 4.03101 15.0526 4.98191 15.0192C5.53408 14.9994 6.08834 15.0015 6.64051 15.0192C7.65508 15.0464 8.29806 15.7019 8.3252 16.7185C8.33146 16.969 8.32624 17.23 8.3252 17.4899ZM5.03828 16.6904V18.3072H6.61859V16.6904H5.03828Z" fill="#007BFF"/>
<path d="M15.0253 17.4806C15.0253 17.1393 15.0002 16.7959 15.0253 16.4566C15.0573 16.0885 15.2185 15.7435 15.4804 15.4827C15.7423 15.2219 16.088 15.0622 16.4563 15.0318C17.138 14.9917 17.8215 14.9917 18.5032 15.0318C19.333 15.0788 19.953 15.751 19.9948 16.6205C20.023 17.204 20.023 17.7917 19.9948 18.3762C19.9499 19.3156 19.2641 19.9711 18.3185 20.0045C17.8153 20.0233 17.3101 20.0139 16.806 20.0045C15.6881 19.992 15.0242 19.3302 15.0044 18.2113C15.0044 17.967 15.0044 17.7238 15.0044 17.4806H15.0253ZM16.6953 18.2979H18.3111V16.7165H16.6933L16.6953 18.2979Z" fill="#007BFF"/>
<path d="M18.3477 34.1634V33.3545H19.9834V34.2094C21.2506 34.5924 22.3319 35.1091 22.4958 36.6592C21.9739 36.6592 21.5021 36.6654 21.0345 36.6529C20.9434 36.64 20.8598 36.5952 20.7986 36.5266C20.0836 35.7698 18.7694 35.5987 17.9041 36.155C17.3822 36.4901 17.3708 36.9086 17.9365 37.1737C18.35 37.3538 18.792 37.4598 19.2423 37.4869C20.0011 37.5464 20.7234 37.6894 21.3675 38.1132C22.8737 39.0922 22.8799 40.9147 21.3675 41.8708C20.975 42.1193 20.5199 42.2664 20.0335 42.4867C20.021 42.6954 20.0053 42.9835 19.9876 43.304H18.353V42.446C17.0889 42.0838 16.0222 41.5389 15.8145 40.0056C16.3416 40.0056 16.8248 39.9993 17.3081 40.0108C17.4021 40.0271 17.4872 40.0763 17.5482 40.1496C18.2632 40.8959 19.5909 41.0609 20.4489 40.5056C20.9458 40.183 20.9708 39.7613 20.427 39.5077C20 39.3191 19.5432 39.2071 19.0774 39.1768C18.3175 39.1142 17.5983 38.968 16.9564 38.5422C15.4543 37.5464 15.4606 35.7417 16.9877 34.7845C17.377 34.535 17.8342 34.391 18.3477 34.1634Z" fill="#007BFF"/>
</g>
<defs>
<clipPath id="clip0_554_3458">
<rect width="50" height="49.9614" fill="white"/>
</clipPath>
</defs>
</svg>
