<svg width="38" height="50" viewBox="0 0 38 50" fill="none" xmlns="http://www.w3.org/2000/svg">
<g clip-path="url(#clip0_554_3415)">
<path d="M36.3474 4.03866H28.7924C28.6241 4.03866 28.4544 4.04809 28.2874 4.03866C27.8134 3.99826 27.4902 3.65889 27.4996 3.21987C27.5021 3.01381 27.5833 2.81651 27.7265 2.66831C27.8697 2.52012 28.0641 2.43223 28.2699 2.42263C28.3708 2.41723 28.472 2.41723 28.5729 2.42263H36.9049C37.7358 2.42263 37.9998 2.67985 37.9998 3.49998V48.9078C37.9998 49.7548 37.7425 50.004 36.8753 50.004H1.93265C1.08154 50.004 0.831055 49.7494 0.831055 48.8862V3.52287C0.831055 2.66772 1.08289 2.41993 1.94746 2.41993C4.72434 2.41993 7.50257 2.41186 10.2794 2.43071C10.5582 2.43071 10.9218 2.5169 11.0875 2.70005C11.2531 2.8832 11.3379 3.30875 11.2316 3.50806C11.1475 3.64199 11.0355 3.7562 10.9033 3.84289C10.771 3.92959 10.6216 3.98671 10.4653 4.01038C9.47547 4.07098 8.48027 4.03462 7.48641 4.03462H2.48075V48.3448H36.3474V4.03866Z" fill="#007BFF"/>
<path d="M31.4993 9.67725C30.9782 9.67725 30.492 9.68533 30.0059 9.67725C29.4577 9.66513 29.1063 9.33384 29.1157 8.85846C29.1251 8.38308 29.4645 8.08007 29.9843 8.07065C30.7425 8.05853 31.4993 8.05987 32.2575 8.07065C32.8272 8.07873 33.1248 8.37904 33.1504 8.93926C33.1504 9.07393 33.1504 9.2086 33.1504 9.34327V44.7209C33.1504 45.7753 32.9511 45.972 31.8764 45.972H6.88314C5.89332 45.972 5.6792 45.7565 5.6792 44.7599V9.27055C5.6792 8.27803 5.89467 8.05852 6.89122 8.05852C7.5309 8.05852 8.17058 8.05044 8.81026 8.05852C9.36375 8.06795 9.71524 8.3925 9.71254 8.86654C9.70985 9.34057 9.35702 9.65435 8.80218 9.67455C8.33218 9.68533 7.85949 9.68533 7.3895 9.69071C7.37603 9.69071 7.36257 9.70822 7.32082 9.7365V44.3115H31.4993V9.67725Z" fill="#007BFF"/>
<path d="M12.1431 15.5746C12.1431 13.4253 12.1431 11.2764 12.1431 9.12796C12.1431 8.33342 12.4125 8.06543 13.1976 8.06543H25.6114C26.4289 8.06543 26.6888 8.33477 26.6888 9.1576C26.6888 13.4562 26.682 17.7535 26.6968 22.0522C26.6968 22.6218 26.476 22.9518 25.9575 23.1645C23.9527 23.9824 21.952 24.812 19.9553 25.6532C19.789 25.7301 19.6079 25.7699 19.4247 25.7699C19.2415 25.7699 19.0604 25.7301 18.8941 25.6532C16.8848 24.8066 14.8702 23.9712 12.8502 23.147C12.3438 22.9396 12.1337 22.6178 12.1378 22.0697C12.1539 19.9069 12.1431 17.7401 12.1431 15.5746ZM13.7592 9.70166C13.7592 13.6569 13.7592 17.5529 13.7511 21.4489C13.7511 21.764 13.9167 21.8434 14.1416 21.9364C15.7711 22.6097 17.3939 23.3019 19.0315 23.9564C19.2894 24.05 19.5721 24.05 19.8301 23.9564C21.4367 23.3154 23.0258 22.6299 24.6283 21.9808C24.9529 21.8461 25.0822 21.6966 25.0808 21.3277C25.0647 17.6162 25.0714 13.9033 25.07 10.1919C25.07 10.0303 25.0566 9.86999 25.0485 9.70974L13.7592 9.70166Z" fill="#007BFF"/>
<path d="M19.4382 -0.00133754C20.9645 -0.00133754 22.4947 -0.00133754 24.0291 -0.00133754C24.79 -0.00133754 25.0674 0.267998 25.0701 1.02215C25.0701 1.9958 25.0781 2.96946 25.0701 3.94312C25.0606 4.97199 24.3967 5.63861 23.3544 5.63996C20.731 5.64714 18.1077 5.64714 15.4843 5.63996C14.446 5.63996 13.7713 4.96661 13.7619 3.94582C13.7538 2.956 13.7619 1.96618 13.7619 0.975014C13.7619 0.285508 14.0528 7.83795e-06 14.7477 -0.00268555C16.3098 -0.00133885 17.8733 -0.00133754 19.4382 -0.00133754ZM15.3981 3.99564H23.415V1.63893H15.3981V3.99564Z" fill="#007BFF"/>
<path d="M19.3643 35.4839H12.4961C12.3448 35.4941 12.1929 35.49 12.0423 35.4718C11.6087 35.391 11.3447 35.1243 11.3447 34.6786C11.3447 34.2328 11.606 33.9635 12.0423 33.8854C12.2095 33.866 12.378 33.8615 12.546 33.8719H26.2822C26.4502 33.8615 26.6187 33.866 26.7859 33.8854C27.2209 33.9635 27.4835 34.2328 27.4848 34.6772C27.4862 35.1216 27.2155 35.3896 26.7872 35.4718C26.6367 35.49 26.4847 35.4941 26.3334 35.4839H19.3643Z" fill="#007BFF"/>
<path d="M19.4156 40.3227H12.4976C12.3467 40.3329 12.1952 40.3288 12.0451 40.3106C11.6101 40.2298 11.3462 39.9645 11.3462 39.5174C11.3462 39.0703 11.6074 38.8037 12.0424 38.7242C12.2096 38.7049 12.3781 38.7004 12.5461 38.7108H26.2824C26.4508 38.7004 26.6198 38.7049 26.7874 38.7242C27.2224 38.8023 27.485 39.0703 27.4863 39.5161C27.4876 39.9618 27.217 40.2285 26.7887 40.3106C26.6381 40.3289 26.4862 40.3329 26.3349 40.3227H19.4156Z" fill="#007BFF"/>
<path d="M20.6329 29.0321C22.6018 29.0321 24.5706 29.0321 26.5409 29.0321C27.1469 29.0321 27.5266 29.3876 27.4903 29.8913C27.4566 30.3424 27.1145 30.636 26.5799 30.6401C25.5201 30.6482 24.4589 30.6401 23.399 30.6401C20.5373 30.6401 17.6756 30.6401 14.8152 30.6279C14.5351 30.6279 14.1728 30.5418 14.0072 30.3586C13.8415 30.1755 13.7944 29.7997 13.851 29.5412C13.9345 29.1547 14.2886 29.0281 14.6778 29.0281C16.2602 29.0281 17.8426 29.0281 19.4249 29.0281L20.6329 29.0321Z" fill="#007BFF"/>
<path d="M21.8396 18.8242C21.8396 19.2605 21.8396 19.643 21.8396 20.0241C21.8275 20.6557 21.5379 20.9587 20.9157 20.9668C19.9228 20.9758 18.9298 20.9758 17.9369 20.9668C17.2864 20.9668 17.0023 20.6624 16.9942 19.9958C16.9942 19.6295 16.9942 19.2632 16.9942 18.8269C16.5902 18.8269 16.232 18.8269 15.8697 18.8269C15.1263 18.8134 14.8516 18.5495 14.8462 17.829C14.839 16.871 14.839 15.9135 14.8462 14.9565C14.8462 14.2535 15.1155 13.999 15.8306 13.9909C16.1983 13.9909 16.5646 13.9909 16.9928 13.9909C16.9928 13.5478 16.9861 13.1506 16.9928 12.7533C17.0063 12.1554 17.2891 11.8429 17.8897 11.8308C18.9159 11.812 19.9434 11.8106 20.9696 11.8308C21.5406 11.8443 21.8221 12.1594 21.8369 12.7291C21.8477 13.1331 21.8369 13.529 21.8369 13.9896C22.2975 13.9896 22.7136 13.9801 23.1284 13.9896C23.6845 14.0057 23.9714 14.2778 23.9795 14.8299C23.9947 15.8713 23.9947 16.9128 23.9795 17.9542C23.9714 18.5158 23.6738 18.7932 23.0826 18.8188C22.688 18.8377 22.288 18.8242 21.8396 18.8242ZM18.6735 13.4657C18.6466 13.5209 18.621 13.5492 18.621 13.5788C18.621 13.9303 18.6129 14.2818 18.6075 14.6346C18.5954 15.2891 18.3126 15.5773 17.65 15.6029C17.2689 15.615 16.8878 15.6029 16.4851 15.6029V17.2189C16.908 17.2189 17.3066 17.2108 17.7052 17.2189C18.3099 17.2337 18.5927 17.5166 18.6062 18.1212C18.6143 18.5252 18.6062 18.9171 18.6062 19.3332H20.1697C20.1939 19.2875 20.2087 19.274 20.2087 19.2592C20.2087 18.8902 20.2087 18.5225 20.2235 18.1535C20.2357 17.5192 20.5131 17.2364 21.1474 17.2243C21.5433 17.2162 21.9379 17.2243 22.3379 17.2243V15.6083C21.9338 15.6083 21.5729 15.6164 21.2066 15.6083C20.5144 15.5894 20.2316 15.3026 20.2235 14.6171C20.2235 14.2387 20.2235 13.8603 20.2235 13.4711L18.6735 13.4657Z" fill="#007BFF"/>
</g>
<defs>
<clipPath id="clip0_554_3415">
<rect width="37.1687" height="50" fill="white" transform="translate(0.831055)"/>
</clipPath>
</defs>
</svg>
