<svg width="50" height="48" viewBox="0 0 50 48" fill="none" xmlns="http://www.w3.org/2000/svg">
<g clip-path="url(#clip0_554_3388)">
<path d="M49.9999 12.5919C49.8576 13.2733 49.754 13.9659 49.566 14.6341C48.8842 17.0682 47.4218 19.2104 45.4039 20.7307C43.386 22.2511 40.9247 23.0654 38.399 23.0481C38.2526 23.0481 38.1073 23.0481 37.8787 23.0481V23.6196C37.8787 29.4662 37.8787 35.3132 37.8787 41.1604C37.8787 44.3529 35.7853 46.925 32.6879 47.524C32.0244 47.6522 31.3293 47.6491 30.6484 47.6502C22.6089 47.6569 14.5698 47.6569 6.53099 47.6502C2.82085 47.6502 0.00902688 44.834 0.00292969 41.132C0.00292969 40.0566 0.00292969 38.9816 0.00292969 37.907C0.00292969 37.1777 0.265109 36.9123 1.00693 36.9092C2.65114 36.9042 4.29433 36.9092 5.93753 36.9092H6.52895C6.54013 36.715 6.55741 36.5451 6.55842 36.3743C6.62211 27.221 6.68511 18.0676 6.74744 8.91432C6.75455 7.82609 6.96795 7.61353 8.06849 7.61353C14.4313 7.61353 20.794 7.61624 27.1568 7.62167C27.5378 7.62167 27.7096 7.51996 27.862 7.15282C29.6922 2.73888 34.1055 -0.12916 38.8278 0.00813995C44.489 0.168832 49.2611 4.52479 49.9155 10.1256C49.9364 10.2344 49.9663 10.3412 50.005 10.445L49.9999 12.5919ZM8.18333 36.9103H25.7188C26.5044 36.9103 26.735 37.1472 26.7422 37.9273C26.7422 39.0674 26.7259 40.2075 26.7513 41.3476C26.7714 42.5992 27.2844 43.7922 28.1788 44.6672C29.0733 45.5422 30.2767 46.0283 31.5274 46.0198C32.7713 46.0239 33.9659 45.5333 34.8484 44.656C35.7309 43.7786 36.2291 42.5864 36.2334 41.3415C36.2588 35.3003 36.2406 29.2591 36.2507 23.2169C36.2507 22.9118 36.1491 22.8101 35.8585 22.7369C33.0131 22.03 30.7358 20.4821 29.0703 18.0585C29.0094 17.9563 28.9209 17.8734 28.815 17.8194C28.7091 17.7655 28.5901 17.7426 28.4717 17.7534C26.6985 17.7625 24.9242 17.7585 23.1509 17.7585C22.2363 17.7585 21.3289 17.7696 20.4173 17.7534C19.7731 17.7412 19.3696 17.2306 19.5617 16.6885C19.7223 16.237 20.0891 16.117 20.5352 16.118C22.3898 16.1251 24.2454 16.118 26.0999 16.118H27.9677C27.0135 13.8805 26.794 11.6196 27.2025 9.28249H8.36929C8.3073 18.4958 8.24531 27.6624 8.18333 36.9103ZM38.4752 21.4198C39.7714 21.4238 41.0558 21.1721 42.2548 20.6792C43.4538 20.1862 44.544 19.4616 45.4631 18.5467C46.3822 17.6319 47.1122 16.5447 47.6113 15.3474C48.1104 14.1501 48.3689 12.8661 48.3719 11.5688C48.4045 6.14392 44.0023 1.6771 38.5931 1.64964C33.1056 1.62218 28.6424 6.02289 28.6181 11.4783C28.6102 12.7796 28.8592 14.0697 29.3508 15.2744C29.8424 16.4792 30.567 17.5749 31.4829 18.4986C32.3988 19.4223 33.488 20.1559 34.6879 20.6572C35.8878 21.1585 37.1749 21.4177 38.4752 21.4198ZM1.63494 38.5457C1.63494 39.5139 1.60547 40.4546 1.64104 41.3934C1.74266 44.0326 3.77506 46.0137 6.40701 46.0178C13.2061 46.028 20.0058 46.028 26.8062 46.0178C26.8776 46.0179 26.9488 46.0101 27.0186 45.9944C26.542 45.2184 25.9475 44.4801 25.6172 43.639C25.3042 42.8426 25.2107 41.9425 25.1264 41.0771C25.0471 40.2441 25.1091 39.3989 25.1091 38.5457H1.63494Z" fill="#007BFF"/>
<path d="M25.6845 31.9431C23.9427 31.9431 22.202 31.9431 20.4602 31.9431C19.9084 31.9431 19.5721 31.6685 19.5294 31.215C19.4806 30.6932 19.8342 30.3311 20.4439 30.324C21.4368 30.3118 22.4296 30.324 23.4214 30.324H30.6984C30.8458 30.324 30.9931 30.3169 31.1384 30.3311C31.6221 30.3789 31.9422 30.7156 31.9321 31.1549C31.9219 31.5943 31.5886 31.935 31.1039 31.9431C30.1608 31.9594 29.2168 31.9493 28.2727 31.9493L25.6845 31.9431Z" fill="#007BFF"/>
<path d="M25.732 23.2341C27.5063 23.2341 29.2795 23.229 31.0528 23.2341C31.5822 23.2341 31.9196 23.5524 31.9308 24.0142C31.942 24.4759 31.6097 24.8013 31.0874 24.8349C30.942 24.8441 30.7947 24.8349 30.6484 24.8349H23.6193C22.5615 24.8349 21.5046 24.8349 20.4467 24.8349C20.0098 24.8349 19.6775 24.6762 19.5505 24.2369C19.3929 23.6958 19.7852 23.2321 20.4122 23.229C22.1855 23.229 23.9587 23.2341 25.732 23.2341Z" fill="#007BFF"/>
<path d="M17.7085 16.9844C17.7085 18.3645 16.5632 19.4955 15.1436 19.5087C13.724 19.5219 12.5147 18.3523 12.5289 16.9732C12.5432 15.5941 13.7199 14.4713 15.1304 14.4744C16.5409 14.4774 17.7044 15.6023 17.7085 16.9844ZM15.108 17.8733C15.6395 17.8825 16.0856 17.4929 16.0988 17.0088C16.112 16.5247 15.6771 16.1179 15.1446 16.1087C14.6121 16.0996 14.1721 16.483 14.1609 16.9722C14.1498 17.4614 14.5715 17.8652 15.108 17.8733Z" fill="#007BFF"/>
<path d="M17.7085 24.0324C17.7085 25.4146 16.5612 26.5435 15.1426 26.5547C13.7239 26.5659 12.5157 25.3993 12.5299 24.0192C12.5441 22.6391 13.7189 21.5214 15.1324 21.5244C16.5459 21.5275 17.7064 22.6493 17.7085 24.0324ZM15.1436 24.9162C15.6791 24.9091 16.111 24.5043 16.0988 24.0202C16.0866 23.5361 15.6324 23.1415 15.109 23.1507C14.5857 23.1598 14.1518 23.5646 14.1609 24.0548C14.1701 24.545 14.6019 24.9254 15.1436 24.9162Z" fill="#007BFF"/>
<path d="M17.7084 31.0756C17.7084 32.4588 16.5652 33.5887 15.1466 33.5989C13.7279 33.609 12.5197 32.4516 12.5298 31.0715C12.54 29.6914 13.7046 28.5798 15.1273 28.5808C16.5499 28.5818 17.7043 29.6853 17.7084 31.0756ZM15.1242 31.9614C15.6628 31.9614 16.0987 31.5699 16.0987 31.0858C16.0987 30.6017 15.6465 30.1959 15.1273 30.1948C14.608 30.1938 14.1629 30.5945 14.1608 31.0827C14.1588 31.5709 14.5836 31.9614 15.1242 31.9614Z" fill="#007BFF"/>
<path d="M39.1702 17.5369C39.1702 17.8593 39.1905 18.1522 39.1702 18.442C39.1584 18.6394 39.07 18.8244 38.9238 18.9574C38.7776 19.0904 38.5852 19.1609 38.3877 19.1539C37.965 19.1539 37.5585 18.8682 37.6103 18.4563C37.7069 17.6884 37.3309 17.3975 36.7069 17.068C35.6471 16.5086 35.1034 15.5313 35.0455 14.3159C35.018 13.7372 35.2975 13.3894 35.7822 13.3609C36.2669 13.3324 36.5748 13.6243 36.6419 14.204C36.7608 15.216 37.3787 15.8669 38.3034 15.9503C38.7661 15.9918 39.2269 15.8526 39.5894 15.5619C39.9519 15.2711 40.188 14.8514 40.2484 14.3904C40.3088 13.9294 40.1887 13.463 39.9133 13.0885C39.638 12.7141 39.2286 12.4608 38.7708 12.3815C38.3542 12.3134 37.9244 12.3062 37.5189 12.1984C36.1978 11.8455 35.1898 10.6556 35.0607 9.34057C34.9134 7.84247 35.5993 6.47253 36.9071 5.87248C37.4213 5.63652 37.6571 5.3965 37.5982 4.81171C37.5494 4.33472 37.8796 4.01944 38.3095 3.98384C38.8054 3.94316 39.2068 4.2737 39.1692 4.80764C39.1306 5.36803 39.3348 5.58669 39.8551 5.80433C41.0979 6.32302 41.7473 7.34514 41.8875 8.68153C41.9465 9.25717 41.6457 9.66195 41.1609 9.71179C40.6762 9.76162 40.3297 9.42498 40.2626 8.83713C40.1346 7.7184 39.3653 7.04308 38.3003 7.11529C37.8502 7.15679 37.4316 7.36476 37.1265 7.69858C36.8213 8.03239 36.6514 8.46808 36.65 8.92053C36.6561 9.90197 37.4274 10.6698 38.4619 10.7278C40.3216 10.8295 41.605 11.9655 41.8703 13.7423C42.1091 15.339 41.101 16.8646 39.4212 17.4524L39.1702 17.5369Z" fill="#007BFF"/>
</g>
<defs>
<clipPath id="clip0_554_3388">
<rect width="50" height="47.6562" fill="white"/>
</clipPath>
</defs>
</svg>
