<svg width="50" height="50" viewBox="0 0 50 50" fill="none" xmlns="http://www.w3.org/2000/svg">
<g clip-path="url(#clip0_555_3554)">
<path d="M0 45.507C0.965402 43.5422 1.89297 41.558 2.90273 39.6167C5.75327 34.1374 8.64296 28.6764 11.5013 23.2036C11.6259 22.9793 11.6969 22.7293 11.7088 22.473C11.7231 19.8534 11.7179 17.2337 11.7179 14.6128V14.2566C11.3918 14.2566 11.0891 14.2645 10.7864 14.2566C10.168 14.2358 9.77665 13.8653 9.77013 13.2456C9.75708 11.9775 9.75708 10.7081 9.77013 9.43746C9.77013 8.74863 10.185 8.40161 10.9612 8.40161C15.583 8.40161 20.2047 8.40161 24.8265 8.40161C25.4944 8.40161 26.1611 8.40161 26.829 8.40161C27.5374 8.41074 27.9184 8.78516 27.9249 9.48834C27.9345 10.706 27.9345 11.9266 27.9249 13.1503C27.9249 13.8848 27.5427 14.2475 26.8017 14.2579C26.5407 14.2579 26.2876 14.2579 25.9745 14.2579V14.8163C25.9745 17.2951 25.9641 19.7633 25.985 22.2369C25.9904 22.6048 26.0796 22.9666 26.2459 23.2949C29.8727 30.238 33.5103 37.1762 37.1588 44.1097C37.952 45.6218 37.892 47.0868 36.8705 48.4632C36.5334 48.9381 36.0866 49.3245 35.568 49.5896C35.0494 49.8547 34.4745 49.9906 33.8922 49.9856C30.3776 50.0104 26.8617 49.9974 23.3471 49.9935C22.7117 49.9935 22.2812 49.6021 22.2695 49.0398C22.2577 48.4593 22.6896 48.047 23.3536 48.0457C26.7377 48.0405 30.1227 48.0405 33.5086 48.0457C35.3559 48.0457 36.2482 46.5911 35.395 44.9629C33.5103 41.3623 31.6252 37.7624 29.7396 34.1635C29.5896 33.8752 29.4239 33.7839 29.1056 33.7839C22.2695 33.7943 15.4338 33.7943 8.59861 33.7839C8.24767 33.7839 8.08852 33.9143 7.93849 34.2C6.06596 37.7877 4.18776 41.3723 2.30392 44.9538C1.4468 46.5898 2.33132 48.0457 4.17471 48.047H14.0897C14.2524 48.0409 14.4154 48.0453 14.5776 48.0601C14.8104 48.0887 15.0249 48.2006 15.1816 48.3752C15.3382 48.5497 15.4263 48.7751 15.4297 49.0096C15.433 49.2441 15.3513 49.4719 15.1997 49.6509C15.0481 49.8298 14.8369 49.9478 14.605 49.983C14.4435 50.0018 14.2808 50.0075 14.1184 50H4.30517C2.00256 50 0.670576 48.9824 0.062634 46.7607C0.0488157 46.7318 0.0297927 46.7057 0.00652936 46.6837L0 45.507ZM13.6709 14.2671V14.8372C13.6709 17.4581 13.6813 20.0778 13.6578 22.6974C13.6508 23.083 13.5567 23.4621 13.3826 23.8063C12.0884 26.3203 10.7655 28.8212 9.45312 31.326C9.37354 31.476 9.30309 31.6313 9.2209 31.7996H28.4728C28.3724 31.596 28.298 31.4356 28.2119 31.2777C26.9073 28.7872 25.591 26.302 24.2981 23.8024C24.125 23.4584 24.0314 23.0798 24.0242 22.6948C24.0007 20.0582 24.0124 17.4216 24.0124 14.785V14.2632L13.6709 14.2671ZM11.7388 12.2671H25.9484V10.3781H11.7388V12.2671Z" fill="#007BFF"/>
<path d="M38.7685 -6.10286e-05C39.0229 0.284341 39.3268 0.537433 39.5199 0.858364C40.184 1.95684 40.818 3.07618 41.4416 4.19683C41.6021 4.48514 41.7756 4.60778 42.12 4.60256C43.4702 4.57908 44.8218 4.60256 46.1642 4.5869C46.3996 4.5693 46.6349 4.62188 46.8405 4.73798C47.046 4.85409 47.2124 5.02851 47.3188 5.2392C48.1251 6.65078 48.9413 8.05626 49.7675 9.45566C49.8987 9.65181 49.9687 9.88245 49.9687 10.1184C49.9687 10.3543 49.8987 10.585 49.7675 10.7811C48.9422 12.1997 48.129 13.6252 47.328 15.0576C47.226 15.2707 47.0625 15.4484 46.8585 15.5677C46.6546 15.687 46.4196 15.7424 46.1838 15.7269C44.8022 15.7086 43.4181 15.7269 42.0365 15.7138C41.9104 15.6994 41.7829 15.7227 41.67 15.7808C41.5572 15.8388 41.4641 15.929 41.4025 16.04C40.8976 16.8358 40.3718 17.6198 39.8369 18.3974C39.6843 18.6205 39.6491 18.7822 39.8056 19.0405C40.0308 19.3917 40.1701 19.7909 40.2123 20.2059C40.2544 20.6209 40.1983 21.04 40.0483 21.4293C39.9426 21.715 40.0183 21.8702 40.214 22.0568C40.6732 22.4938 41.1272 22.94 41.5577 23.4044C41.7703 23.6327 41.9491 23.6849 42.2674 23.5858C43.4703 23.2166 44.5361 23.5127 45.3554 24.4638C46.1747 25.4148 46.3208 26.5211 45.7624 27.6496C45.2041 28.7781 44.2478 29.3286 42.9915 29.2842C41.1063 29.2177 39.7861 27.3273 40.3562 25.5074C40.4618 25.1682 40.4044 24.9856 40.1644 24.7586C39.7 24.3255 39.2512 23.8741 38.818 23.4135C38.7521 23.3248 38.6576 23.2614 38.5505 23.2341C38.4433 23.2067 38.3301 23.2171 38.2297 23.2635C37.6657 23.4626 37.0537 23.4817 36.4784 23.3181C35.9031 23.1545 35.3927 22.8164 35.0178 22.3503C34.6502 21.9004 34.4254 21.351 34.3719 20.7725C34.3184 20.1941 34.4388 19.6128 34.7177 19.1032C35.3061 18.0282 36.428 17.4711 37.7091 17.5924C37.7887 17.5964 37.8682 17.5828 37.9419 17.5526C38.0157 17.5224 38.0818 17.4763 38.1357 17.4176C38.7019 16.6035 39.2503 15.7773 39.7808 14.9389C39.8197 14.8597 39.8406 14.773 39.8422 14.6849C39.8438 14.5967 39.8259 14.5093 39.79 14.4288C39.2251 13.3851 38.6458 12.3493 38.0392 11.3304C37.978 11.2477 37.8997 11.1792 37.8096 11.1294C37.7196 11.0797 37.6199 11.0499 37.5174 11.0421C36.1345 11.0186 34.7516 11.0186 33.3687 11.0342C33.1414 11.05 32.9145 10.9982 32.7165 10.8854C32.5185 10.7726 32.3583 10.6038 32.2559 10.4002C31.5436 9.15952 30.8287 7.92145 30.0838 6.70035C29.9118 6.43234 29.6789 6.20882 29.4041 6.04805C28.8183 5.69973 28.2012 5.40619 27.5776 5.07874C26.8562 5.67233 26.0343 5.975 25.0989 5.80801C24.4384 5.69822 23.8354 5.36531 23.3906 4.8648C22.9458 4.36428 22.686 3.72641 22.6546 3.05755C22.6232 2.38868 22.822 1.72926 23.2179 1.18923C23.6138 0.649203 24.1828 0.261212 24.8302 0.0899565C24.9215 0.0638646 25.0076 0.0234215 25.0911 -0.010498H26.0669C26.0894 0.0125115 26.1154 0.0318774 26.1439 0.0469046C27.7551 0.54787 28.4308 1.42064 28.5065 3.08922C28.5055 3.14914 28.5165 3.20865 28.5389 3.26423C28.5613 3.31981 28.5947 3.37032 28.637 3.41277C29.1379 3.69847 29.6533 3.95678 30.179 4.23336C30.8639 3.04617 31.5006 1.91378 32.1737 0.802266C32.359 0.495685 32.6564 0.258249 32.903 -0.010498L38.7685 -6.10286e-05ZM43.782 6.58685V6.54249C43.1806 6.54249 42.5779 6.52423 41.9778 6.55424C41.889 6.56247 41.803 6.58925 41.7252 6.63285C41.6475 6.67645 41.5797 6.73589 41.5264 6.80733C40.9237 7.79099 40.3405 8.78553 39.7769 9.79094C39.7357 9.87873 39.7137 9.97428 39.7124 10.0712C39.711 10.1682 39.7304 10.2643 39.7691 10.3532C40.3362 11.4117 40.925 12.4588 41.5355 13.4947C41.5867 13.5677 41.6531 13.6289 41.7301 13.6739C41.8071 13.7189 41.8929 13.7468 41.9817 13.7556C43.1558 13.7765 44.3222 13.7791 45.4911 13.7556C45.5871 13.7456 45.6798 13.7151 45.763 13.6663C45.8463 13.6174 45.9181 13.5514 45.9738 13.4725C46.5826 12.4549 47.1696 11.4256 47.735 10.3845C47.7715 10.3024 47.7904 10.2135 47.7904 10.1236C47.7904 10.0337 47.7715 9.94483 47.735 9.86269C47.461 9.32911 47.1466 8.81902 46.8426 8.29718C46.506 7.72446 46.2895 6.92344 45.7885 6.64817C45.2628 6.36376 44.4617 6.58685 43.782 6.58685ZM35.8579 1.95553C35.2721 1.95553 34.6838 1.93596 34.1019 1.96858C34.0058 1.97776 33.9126 2.00672 33.8282 2.05364C33.7438 2.10056 33.67 2.16443 33.6114 2.24124C33.0026 3.2423 32.4181 4.25554 31.858 5.28095C31.8208 5.37027 31.803 5.46653 31.8059 5.56327C31.8088 5.66001 31.8324 5.75502 31.875 5.84193C32.4299 6.83429 33.0048 7.81578 33.5997 8.7864C33.6553 8.86481 33.7271 8.93048 33.8101 8.97906C33.893 9.02765 33.9854 9.05803 34.0811 9.06819C35.2526 9.09255 36.4237 9.09255 37.5943 9.06819C37.6903 9.05757 37.783 9.02674 37.8662 8.97772C37.9494 8.92869 38.0212 8.8626 38.077 8.78379C38.6641 7.83013 39.2146 6.85168 39.7965 5.89281C39.8673 5.79682 39.9054 5.6807 39.9054 5.56144C39.9054 5.44218 39.8673 5.32606 39.7965 5.23007C39.2407 4.29467 38.6902 3.35406 38.1749 2.39518C37.9844 2.04294 37.7548 1.92422 37.3686 1.9477C36.8677 1.98032 36.3628 1.95553 35.8579 1.95553ZM26.5548 2.9392C26.5656 2.80585 26.5487 2.67173 26.5052 2.5452C26.4618 2.41867 26.3928 2.30245 26.3024 2.2038C26.212 2.10515 26.1023 2.02619 25.9801 1.97185C25.8578 1.91751 25.7257 1.88896 25.5919 1.88797C25.4582 1.88698 25.3256 1.91358 25.2026 1.96611C25.0796 2.01863 24.9687 2.09596 24.8769 2.19327C24.7851 2.29057 24.7143 2.40575 24.669 2.53162C24.6237 2.6575 24.6048 2.79136 24.6136 2.92485C24.6208 3.17682 24.7254 3.41618 24.9056 3.59253C25.0857 3.76888 25.3272 3.86847 25.5793 3.87033C25.8313 3.87219 26.0743 3.77617 26.257 3.6025C26.4397 3.42882 26.5479 3.19104 26.5588 2.9392H26.5548ZM38.2727 20.4965C38.2655 20.2438 38.1619 20.0034 37.9831 19.8246C37.8043 19.6458 37.564 19.5422 37.3113 19.535C37.1806 19.5319 37.0507 19.5552 36.9293 19.6034C36.8079 19.6516 36.6974 19.7238 36.6044 19.8157C36.5115 19.9075 36.438 20.0171 36.3883 20.1379C36.3386 20.2588 36.3138 20.3884 36.3153 20.519C36.3168 20.6497 36.3446 20.7787 36.397 20.8984C36.4494 21.0181 36.5254 21.126 36.6204 21.2157C36.7154 21.3053 36.8275 21.375 36.95 21.4204C37.0725 21.4659 37.2029 21.4862 37.3334 21.4801C37.586 21.4671 37.824 21.358 37.9987 21.1751C38.1733 20.9922 38.2714 20.7494 38.2727 20.4965ZM43.1519 27.3391C43.2797 27.3397 43.4064 27.3151 43.5247 27.2667C43.643 27.2184 43.7506 27.1472 43.8414 27.0573C43.9322 26.9673 44.0044 26.8604 44.0539 26.7425C44.1033 26.6247 44.1291 26.4982 44.1297 26.3704C44.1303 26.2426 44.1057 26.1159 44.0574 25.9976C44.009 25.8793 43.9379 25.7717 43.8479 25.6809C43.758 25.5901 43.651 25.5179 43.5332 25.4685C43.4153 25.419 43.2889 25.3932 43.161 25.3926C42.9029 25.3914 42.6549 25.4928 42.4715 25.6744C42.2882 25.8561 42.1845 26.1032 42.1833 26.3613C42.1821 26.6194 42.2834 26.8674 42.4651 27.0508C42.6467 27.2342 42.8938 27.3379 43.1519 27.3391Z" fill="#007BFF"/>
<path d="M19.8179 49.0058C19.8206 49.1973 19.7668 49.3853 19.6631 49.5463C19.5594 49.7073 19.4105 49.8342 19.2351 49.911C19.0597 49.9878 18.8655 50.0111 18.6768 49.9781C18.4882 49.945 18.3135 49.8571 18.1746 49.7252C18.0358 49.5933 17.9389 49.4234 17.8961 49.2367C17.8534 49.0501 17.8667 48.8549 17.9343 48.6757C18.0019 48.4966 18.1209 48.3413 18.2764 48.2295C18.4318 48.1176 18.6168 48.0541 18.8082 48.0469C19.0691 48.0406 19.3219 48.138 19.5112 48.3177C19.7005 48.4975 19.8108 48.7449 19.8179 49.0058Z" fill="#007BFF"/>
<path d="M18.8332 27.9263C16.8632 27.9263 15.389 25.9851 16.1105 24.1573C16.6101 22.888 17.3655 21.7112 18.0674 20.5332C18.1436 20.3996 18.2535 20.2882 18.386 20.2101C18.5186 20.1321 18.6692 20.0899 18.823 20.088C18.9768 20.086 19.1285 20.1242 19.263 20.1989C19.3975 20.2735 19.5102 20.382 19.5898 20.5136C20.3113 21.7021 21.0745 22.8932 21.5767 24.1795C22.2969 26.0059 20.8057 27.9328 18.8332 27.9263ZM18.9297 22.978L18.7549 22.9871C18.4796 23.5716 18.1887 24.1495 17.9356 24.7431C17.7595 25.1593 17.9356 25.5141 18.2683 25.7711C18.4249 25.9058 18.6238 25.9812 18.8303 25.984C19.0368 25.9869 19.2378 25.9171 19.3981 25.7868C19.7399 25.5363 19.933 25.188 19.7594 24.7692C19.509 24.1612 19.2089 23.5742 18.9297 22.978Z" fill="#007BFF"/>
</g>
<defs>
<clipPath id="clip0_555_3554">
<rect width="49.9765" height="50" fill="white"/>
</clipPath>
</defs>
</svg>
