<svg width="50" height="50" viewBox="0 0 50 50" fill="none" xmlns="http://www.w3.org/2000/svg">
<g clip-path="url(#clip0_555_3547)">
<path d="M0 49.0152C0.173493 48.8234 0.337855 48.6238 0.521785 48.4412C3.37334 45.5862 6.22661 42.7329 9.08164 39.8813C9.21209 39.7509 9.34254 39.6439 9.48082 39.5252L9.30601 39.4965C9.246 38.8156 9.06079 38.1151 9.16776 37.4615C9.25777 36.9085 9.61258 36.3488 9.98174 35.8962C10.5492 35.21 11.2353 34.6217 11.8575 33.9786C11.9515 33.8808 12.0467 33.6903 12.0154 33.5795C11.6749 32.382 12.0545 31.4741 13.1894 30.7566C13.0258 30.6491 12.8693 30.531 12.7211 30.4031C12.1693 29.8604 12.1667 29.5461 12.7041 29.0086C13.1503 28.5625 13.6042 28.1229 14.0947 27.6416C13.2781 26.8276 12.4954 26.0501 11.7153 25.2714C11.1179 24.6739 11.1205 24.3739 11.7258 23.7686C17.742 17.7516 23.759 11.735 29.7769 5.71878C29.9074 5.58834 30.0483 5.48528 30.2635 5.30135C29.6817 4.74174 29.1312 4.24344 28.6186 3.7073C28.3017 3.38574 28.0936 2.97298 28.0234 2.52703C27.9532 2.08108 28.0245 1.62435 28.2272 1.221C28.4186 0.831846 28.7209 0.508082 29.0961 0.290554C29.4712 0.0730259 29.9024 -0.0285211 30.3352 -0.00127786C30.9509 0.037856 31.4427 0.323531 31.8732 0.755308C34.3082 3.199 36.7462 5.63877 39.1873 8.07464C42.5363 11.4219 45.8844 14.77 49.2317 18.119C50.0822 18.9695 50.24 20.0379 49.6674 20.9549C49.4947 21.2318 49.2624 21.4668 48.9874 21.6425C48.7124 21.8183 48.4017 21.9304 48.0778 21.9708C47.754 22.0112 47.4252 21.9787 47.1155 21.8759C46.8057 21.773 46.5229 21.6023 46.2875 21.3762C45.7527 20.8792 45.2609 20.3327 44.7221 19.79C44.5473 19.9557 44.4078 20.0822 44.2747 20.2153L26.2549 38.2364C25.6027 38.8886 25.3248 38.8886 24.6804 38.2494C23.9225 37.4902 23.1685 36.7258 22.3454 35.8949C21.9228 36.3293 21.5236 36.7467 21.1166 37.1576C20.4083 37.8711 20.18 37.8711 19.4756 37.1759C19.383 37.0859 19.2865 37.0011 19.173 36.8954C18.6421 37.759 17.8816 38.2807 16.8902 38.0538C16.2549 37.9077 15.947 38.1581 15.5857 38.5442C15.0835 39.0765 14.5695 39.6009 14.0308 40.0953C13.1046 40.9445 12.0297 41.1388 10.8674 40.6705C10.5661 40.5466 10.4213 40.5975 10.2152 40.8075C7.3454 43.6912 4.47038 46.5689 1.59013 49.4404C1.39577 49.6335 1.18445 49.8083 0.982263 49.9922H0.00522294L0 49.0152ZM13.0733 24.3882L17.7694 29.1065L25.1526 21.7245C25.9575 20.9197 26.7506 20.1005 27.5737 19.3152C27.7843 19.1102 28.0342 18.9501 28.3083 18.8443C28.5825 18.7386 28.8752 18.6895 29.1689 18.7C29.4625 18.7105 29.751 18.7803 30.0169 18.9053C30.2829 19.0304 30.5207 19.2079 30.7161 19.4274C31.5197 20.3131 31.4597 21.6215 30.544 22.5411C28.0298 25.0631 25.5105 27.5824 22.9859 30.0992C22.2645 30.8205 21.5353 31.5341 20.8466 32.2137L25.4539 36.8237L43.6277 18.659C43.4911 18.5645 43.3604 18.4617 43.2364 18.3512C39.8448 14.9596 36.4505 11.5658 33.0537 8.16987C32.9202 8.05251 32.7995 7.92133 32.6937 7.77853C32.5892 7.63998 32.5414 7.4668 32.56 7.29425C32.5787 7.12169 32.6624 6.96274 32.7941 6.84975C32.9051 6.72601 33.059 6.64929 33.2246 6.63522C33.3902 6.62116 33.5549 6.67083 33.6851 6.77409C33.8536 6.90159 34.0099 7.04439 34.1521 7.20065L46.9567 20.0052C47.0873 20.1497 47.2319 20.2808 47.3885 20.3966C47.5208 20.4957 47.6849 20.5427 47.8496 20.5288C48.0144 20.5148 48.1682 20.4409 48.282 20.3209C48.4107 20.2161 48.4954 20.0669 48.5196 19.9027C48.5437 19.7386 48.5055 19.5713 48.4125 19.4339C48.3113 19.2869 48.1936 19.1521 48.0616 19.0321C45.9457 16.9137 43.8295 14.7961 41.7128 12.6794L30.9431 1.91236C30.4331 1.40232 30.0443 1.32797 29.6869 1.66974C29.3295 2.01151 29.4038 2.44328 29.9217 2.96115C30.4396 3.47902 30.9353 3.97341 31.4414 4.47954C32.1419 5.18134 32.1406 5.41354 31.4284 6.12577C25.4461 12.108 19.463 18.0894 13.479 24.0699C13.3514 24.1854 13.2158 24.2918 13.0733 24.3882ZM18.762 30.2127L19.7652 31.2393C19.8539 31.1584 19.927 31.0945 19.9961 31.0266C23.1494 27.8733 26.3019 24.7209 29.4534 21.5693C29.5379 21.4928 29.614 21.4075 29.6804 21.3149C29.8852 20.9862 29.8748 20.6536 29.5956 20.3796C29.3164 20.1057 28.9838 20.1031 28.6603 20.317C28.5564 20.3939 28.4607 20.4814 28.3746 20.5779C25.2674 23.6843 22.1606 26.7906 19.0542 29.897C18.9538 30.0052 18.8586 30.1135 18.762 30.2166V30.2127ZM15.1161 28.7712L14.1247 29.6843L20.3065 35.8675L21.2197 34.9074C19.1821 32.8594 17.1315 30.801 15.1161 28.7751V28.7712ZM15.0261 36.9972L12.9898 34.9661C12.3193 35.6262 11.5914 36.3006 10.9144 37.0219C10.6639 37.2956 10.5291 37.6557 10.5384 38.0266C10.5476 38.3975 10.7001 38.7504 10.964 39.0112C11.2271 39.2847 11.5879 39.4427 11.9674 39.4508C12.3468 39.4589 12.7139 39.3163 12.9885 39.0543C13.6981 38.3903 14.3621 37.6755 15.0261 37.0011V36.9972ZM17.9963 35.9627C17.8515 35.7018 17.785 35.4957 17.6481 35.3561C16.6593 34.3474 15.6622 33.3473 14.6569 32.3559C14.3099 32.0128 13.8743 31.9945 13.5716 32.2802C13.269 32.5659 13.2846 33.0342 13.6394 33.4008C14.1156 33.8886 14.6021 34.3661 15.0835 34.8474C15.6053 35.3692 16.0905 35.9105 16.6488 36.3788C16.7684 36.4618 16.9038 36.5191 17.0466 36.5472C17.1894 36.5753 17.3364 36.5735 17.4785 36.5419C17.6807 36.4949 17.8163 36.1806 17.9963 35.9666V35.9627Z" fill="#007BFF"/>
</g>
<defs>
<clipPath id="clip0_555_3547">
<rect width="50" height="49.9922" fill="white"/>
</clipPath>
</defs>
</svg>
