<svg width="50" height="48" viewBox="0 0 50 48" fill="none" xmlns="http://www.w3.org/2000/svg">
<g clip-path="url(#clip0_555_3562)">
<path d="M49.3214 24.8007C48.442 23.1239 46.9906 22.079 45.009 21.6947C45.009 21.5514 45.009 21.4107 45.009 21.2726C45.009 20.9638 45.009 20.6681 45.009 20.371C44.996 18.7803 44.626 17.3902 43.8782 16.1238C41.9239 12.8198 37.8852 11.6551 34.6828 13.4699C32.1266 14.9187 30.8225 17.2038 30.8069 20.2629C30.786 23.9004 30.7912 27.6004 30.7951 31.1767C30.7951 32.8209 30.7951 34.4646 30.7951 36.1079C30.7951 38.7292 30.0486 40.9062 28.5126 42.7615C25.6854 46.1788 21.0317 46.8576 17.4477 44.3744C14.5254 42.3511 13.2004 39.3585 13.3945 35.2259C13.4114 35.1716 13.4408 35.1221 13.4805 35.0813C13.5201 35.0406 13.5688 35.0098 13.6225 34.9914C14.8342 34.7986 15.5481 34.0351 15.7462 32.7232C15.8461 31.9056 15.8832 31.0815 15.8569 30.2582V30.0954C15.8569 29.6967 15.969 29.5403 16.3455 29.4283C18.9833 28.6731 21.2916 27.0552 22.9013 24.8332C24.5676 22.5585 25.2464 19.8825 24.9858 16.6554V16.6254H23.369V16.073C23.369 15.0868 23.3599 14.1005 23.3547 13.113C23.3417 10.8552 23.3273 8.52179 23.3469 6.22491C23.369 3.67657 21.747 2.16138 20.1302 1.79528C19.9556 1.7549 19.7953 1.47349 19.7498 1.3875C19.5877 1.083 19.3656 0.8145 19.0969 0.598196C18.8282 0.381892 18.5184 0.222272 18.1864 0.128966C17.6952 -0.00761967 17.174 0.00897992 16.6925 0.176546C16.211 0.344112 15.7921 0.65466 15.4919 1.06668C15.1916 1.4787 15.0242 1.97255 15.0122 2.48224C15.0001 2.99192 15.1439 3.49314 15.4244 3.9189C15.6162 4.20854 15.8655 4.45562 16.1569 4.64479C16.4483 4.83395 16.7754 4.96116 17.118 5.01849C17.4507 5.07304 17.7911 5.05742 18.1173 4.9726C18.4435 4.88779 18.7484 4.73567 19.0124 4.52602C19.2411 4.33182 19.4482 4.11341 19.6299 3.8746C19.7172 3.76777 19.8084 3.65833 19.9035 3.5502C19.9425 3.55492 19.9809 3.56365 20.0181 3.57625C21.0396 3.9671 21.5815 4.83739 21.592 6.09071C21.6076 8.50616 21.618 10.9607 21.6271 13.3358L21.6389 16.1824C21.6389 16.288 21.6389 16.3922 21.6389 16.5094V16.6541H19.9595V16.6879C20.0677 18.5327 19.9712 20.6629 18.4469 22.4699C17.1024 24.0632 15.2771 24.8932 13.0206 24.9374H12.85C11.0951 24.9374 9.5512 24.3942 8.2588 23.3219C6.4179 21.795 5.67529 19.6818 5.9137 16.671V16.6358H3.42659L3.40315 16.5811C3.39393 16.5649 3.38735 16.5473 3.38362 16.529C3.38362 15.6014 3.38362 14.6738 3.38362 13.7461C3.38362 11.1262 3.37448 8.41887 3.39793 5.75458C3.40575 4.82697 3.89694 4.09087 4.81934 3.62967C5.07991 3.49939 5.21017 3.53717 5.35218 3.79513C5.56794 4.20735 5.90005 4.54711 6.30722 4.77224C6.7144 4.99737 7.17872 5.09794 7.64256 5.06148C8.95712 5.00416 9.92904 4.057 10.0632 2.70596C10.1753 1.57771 9.40138 0.465097 8.26271 0.117241C7.06411 -0.248854 5.85118 0.289213 5.24406 1.45525C5.16448 1.61295 5.02876 1.73518 4.86362 1.79789C2.9224 2.25909 1.62869 3.99837 1.64433 6.12589C1.66126 8.45535 1.65737 10.8239 1.65476 13.1156C1.65476 14.1005 1.65476 15.0859 1.65476 16.0717V16.6449H-0.00634766V19.4004V19.4121C0.00277215 19.4369 0.0131922 19.4604 0.0236149 19.4838C0.0466586 19.5296 0.0637204 19.5782 0.0744113 19.6284C0.645051 23.6672 2.88593 26.7106 6.73449 28.6701C7.27111 28.9306 7.82274 29.159 8.38647 29.354C8.63792 29.4478 8.8972 29.543 9.15125 29.6446V30.0042C9.15125 30.296 9.15125 30.5904 9.15125 30.8836C9.15125 30.9878 9.15125 31.092 9.15125 31.1949C9.15125 31.5259 9.15124 31.8672 9.1773 32.2007C9.28152 33.6703 10.0085 34.7048 11.0755 34.9015C11.6201 35.0005 11.6931 35.2376 11.6396 35.6663C11.6284 35.7801 11.6262 35.8947 11.6331 36.0089C11.6331 36.0584 11.6331 36.1079 11.6331 36.1574C11.6422 39.223 12.5634 41.7974 14.4512 44.0265C15.3853 45.1329 16.5493 46.0225 17.8621 46.6334C19.175 47.2443 20.6052 47.5617 22.0532 47.5637H22.0727C23.5157 47.5643 24.9416 47.2513 26.2517 46.6464C27.5619 46.0415 28.7249 45.1591 29.6604 44.0604C31.5482 41.8456 32.5071 39.1865 32.5097 36.1522C32.5162 29.9703 32.5097 24.9479 32.5097 20.3567C32.4911 19.317 32.7264 18.2885 33.1949 17.3602C34.0704 15.6509 35.6547 14.5317 37.4344 14.3637C39.1906 14.2008 40.8543 14.9539 41.9943 16.4313C43.2841 18.0963 43.3492 20.0023 43.2385 21.6504C39.5111 22.3591 37.9255 25.6266 38.3281 28.3496C38.5336 29.7027 39.2052 30.9416 40.2268 31.8524C41.2484 32.7632 42.556 33.2887 43.9238 33.3381C45.2964 33.3876 46.642 32.9475 47.7202 32.0965C48.8081 31.2447 49.5625 30.0381 49.8516 28.687C50.1444 27.3698 49.9563 25.9913 49.3214 24.8007ZM48.2661 27.4845C48.2623 28.5769 47.8261 29.6234 47.0529 30.3951C46.2798 31.1668 45.2324 31.601 44.14 31.6027H44.127C43.0337 31.6013 41.9858 31.1657 41.2137 30.3917C40.4417 29.6177 40.0087 28.5686 40.0101 27.4754C40.0114 26.3821 40.4471 25.3342 41.2211 24.5621C41.9951 23.79 43.0442 23.357 44.1374 23.3584C46.3731 23.3584 48.2635 25.2475 48.2661 27.4845ZM14.2049 29.9742C14.1841 30.2269 14.1658 30.481 14.1463 30.735C14.0981 31.3865 14.0486 32.0639 13.9665 32.7271C13.9222 33.0749 13.6421 33.2834 13.2148 33.286H12.9542C12.6116 33.286 12.2572 33.286 11.9119 33.286C11.3335 33.2756 11.0729 33.058 11.013 32.5342C10.9439 31.9323 10.9166 31.3135 10.8905 30.7168C10.8788 30.4693 10.8684 30.2217 10.854 29.9742H14.2049ZM16.6243 27.5144C12.2428 29.0778 8.28616 28.3417 4.84539 25.3179C2.89114 23.5955 1.6222 20.7475 1.75899 18.3829H4.14575C4.27604 21.1957 5.43817 23.4236 7.60347 25.0026C9.28282 26.2272 11.2853 26.7823 13.56 26.6546C17.2874 26.4422 21.4369 23.7649 21.7535 18.3868H23.2909C23.3094 19.3095 23.1683 20.2285 22.8739 21.1032C21.8252 24.2509 19.7224 26.407 16.6243 27.5144ZM18.2997 2.52096C18.2997 2.72582 18.2194 2.92251 18.0759 3.0687C17.9323 3.21489 17.7372 3.2989 17.5323 3.30266C17.325 3.30888 17.1237 3.23249 16.9727 3.09029C16.8217 2.94809 16.7334 2.75173 16.7272 2.54441C16.721 2.33709 16.7974 2.1358 16.9396 1.9848C17.0818 1.83381 17.2781 1.74548 17.4854 1.73926H17.5089C17.7162 1.7419 17.9145 1.82482 18.062 1.9706C18.2095 2.11638 18.2947 2.31366 18.2997 2.52096ZM6.9651 1.97638C7.03829 1.90086 7.1257 1.84058 7.22229 1.79899C7.31888 1.7574 7.42274 1.73533 7.5279 1.73405C7.73276 1.73402 7.92946 1.8144 8.07565 1.95792C8.22184 2.10143 8.30584 2.29659 8.30959 2.50142C8.31407 2.60606 8.29707 2.7105 8.25959 2.8083C8.22211 2.9061 8.16497 2.99517 8.09171 3.07002C8.01845 3.14486 7.93063 3.20389 7.83366 3.24346C7.73669 3.28303 7.63261 3.30229 7.5279 3.30005C7.37506 3.29894 7.22591 3.25305 7.09888 3.16806C6.97185 3.08307 6.87252 2.9627 6.81318 2.82185C6.75385 2.68099 6.73711 2.52584 6.76503 2.37557C6.79295 2.2253 6.86434 2.08651 6.97031 1.97638H6.9651Z" fill="#007BFF"/>
<path d="M44.149 24.9583H44.1203C43.455 24.9688 42.8206 25.2404 42.3536 25.7144C41.8867 26.1884 41.6247 26.8269 41.6241 27.4923C41.6215 27.8224 41.6846 28.1497 41.8097 28.4553C41.9348 28.7608 42.1194 29.0384 42.3528 29.2719C42.5862 29.5054 42.8637 29.6902 43.1691 29.8154C43.4746 29.9407 43.8019 30.0039 44.132 30.0015C44.791 29.988 45.4184 29.717 45.8801 29.2467C46.3418 28.7764 46.6011 28.144 46.6024 27.485C46.6038 26.8259 46.3472 26.1925 45.8874 25.7203C45.4277 25.248 44.8013 24.9745 44.1424 24.9583H44.149ZM44.1698 28.2648C44.0671 28.267 43.9651 28.2489 43.8694 28.2116C43.7738 28.1743 43.6864 28.1185 43.6123 28.0474C43.5382 27.9763 43.4788 27.8913 43.4376 27.7973C43.3963 27.7033 43.374 27.6021 43.3718 27.4994C43.3697 27.3968 43.3878 27.2947 43.4251 27.199C43.4624 27.1034 43.5182 27.016 43.5893 26.9419C43.6604 26.8678 43.7453 26.8084 43.8394 26.7672C43.9334 26.7259 44.0346 26.7036 44.1372 26.7014H44.1542C44.3586 26.7104 44.5523 26.7956 44.697 26.9403C44.8417 27.085 44.927 27.2787 44.9359 27.4831C44.9346 27.6869 44.8537 27.882 44.7107 28.0271C44.5676 28.1721 44.3735 28.2556 44.1698 28.2596V28.2648Z" fill="#007BFF"/>
</g>
<defs>
<clipPath id="clip0_555_3562">
<rect width="50" height="47.5676" fill="white"/>
</clipPath>
</defs>
</svg>
